SplineFontDB: 3.2
FontName: MFEKSans-Italic
FullName: MFEK Sans Italic
FamilyName: MFEK Sans
Weight: Regular
Copyright: 
Version: 0.1
ItalicAngle: -13
UnderlinePosition: -200
UnderlineWidth: 100
Ascent: 1600
Descent: 400
InvalidEm: 0
LayerCount: 2
Layer: 0 0 "Back" 1
Layer: 1 0 "Fore" 0
XUID: [1021 31 -699969567 16487490]
FSType: 0
OS2Version: 0
OS2_WeightWidthSlopeOnly: 0
OS2_UseTypoMetrics: 1
CreationTime: 1460762150
ModificationTime: 1695828023
PfmFamily: 33
TTFWeight: 400
TTFWidth: 5
LineGap: 0
VLineGap: 0
OS2TypoAscent: 2500
OS2TypoAOffset: 0
OS2TypoDescent: -850
OS2TypoDOffset: 0
OS2TypoLinegap: 0
OS2WinAscent: 2500
OS2WinAOffset: 0
OS2WinDescent: 850
OS2WinDOffset: 0
HheadAscent: 2500
HheadAOffset: 0
HheadDescent: -850
HheadDOffset: 0
OS2CapHeight: 1500
OS2XHeight: 1040
OS2FamilyClass: 2053
OS2Vendor: 'it* '
OS2UnicodeRanges: 00000001.00000000.00000000.00000000
Lookup: 258 0 0 "kerning yeah boi" { "say cheese" [300,0,4] } ['kern' ('DFLT' <'dflt' > 'grek' <'dflt' > 'latn' <'dflt' > ) ]
MarkAttachClasses: 1
DEI: 91125
KernClass2: 30 23 "say cheese"
 73 A Agrave Aacute Acircumflex Atilde Adieresis Aring Amacron Abreve Aogonek
 96 D O Ograve Oacute Ocircumflex Otilde Odieresis Oslash Dcaron Dcroat Omacron Obreve Ohungarumlaut
 81 E AE Egrave Eacute Ecircumflex Edieresis Emacron Ebreve Edotaccent Eogonek Ecaron
 1 F
 39 G Gcircumflex Gbreve Gdotaccent uni0122
 104 J U Ugrave Uacute Ucircumflex Udieresis IJ Jcircumflex Utilde Umacron Ubreve Uring Uhungarumlaut Uogonek
 11 K X uni0136
 23 L Lacute uni013B Lslash
 1 P
 1 Q
 23 R Racute uni0156 Rcaron
 36 S Sacute Scircumflex Scedilla Scaron
 21 T uni0162 Tcaron Tbar
 1 V
 53 W Wcircumflex Wgrave Wacute Wdieresis uni1E86 uni1E88
 30 Y Ycircumflex Ydieresis Ygrave
 26 Z Zacute Zdotaccent Zcaron
 73 a agrave aacute acircumflex atilde adieresis aring amacron abreve aogonek

StartChar: ampersand
Encoding: 38 38 0
Width: 1280
VWidth: 1920
Flags: HMW
LayerCount: 2
Fore
SplineSet
925 10 m 2
 607 734 l 2
 526 919 457 1030 488 1163 c 0
 520 1303 649 1435 856 1435 c 0
 1043 1435 1147 1353 1113 1183 c 4
 1079 1015 948 878 696 776 c 0
 416 663 252 592 219 448 c 0
 205 389 208 341 230 286 c 2
 259 213 l 2
 285 145 346 105 431 105 c 0
 623 105 862 336 1040 640 c 0
 1043 645 1048 648 1055 648 c 2
 1175 648 l 2
 1182 648 1183 645 1178 637 c 0
 948 227 671 -35 403 -35 c 0
 267 -35 148 22 106 119 c 2
 72 199 l 2
 37 279 27 352 49 448 c 0
 97 657 339 767 606 862 c 0
 781 924 944 1032 974 1163 c 0
 992 1243 942 1300 845 1300 c 0
 748 1300 677 1242 656 1153 c 0
 629 1034 685 973 729 876 c 2
 1125 10 l 2
 1128 3 1127 0 1120 0 c 2
 940 0 l 2
 933 0 928 3 925 10 c 2
EndSplineSet
EndChar

StartChar: period
Encoding: 46 46 1
Width: 540
VWidth: 1920
Flags: HMW
LayerCount: 2
Fore
SplineSet
245 0 m 6
 55 0 l 6
 48 0 45 3 47 10 c 6
 91 200 l 6
 93 207 96 210 103 210 c 6
 293 210 l 6
 300 210 303 207 301 200 c 6
 257 10 l 6
 255 3 252 0 245 0 c 6
EndSplineSet
EndChar

StartChar: zero
Encoding: 48 48 2
Width: 1150
VWidth: 1920
Flags: HMW
LayerCount: 2
Fore
SplineSet
93 488 m 262
 191 913 l 262
 266 1239 484 1435 786 1435 c 260
 1088 1435 1216 1239 1141 913 c 262
 1043 488 l 262
 968 162 748 -35 447 -35 c 260
 146 -35 18 162 93 488 c 262
287 508 m 262
 230 260 295 105 479 105 c 260
 663 105 800 260 857 508 c 262
 946 893 l 262
 1003 1141 938 1295 754 1295 c 260
 570 1295 433 1141 376 893 c 262
 287 508 l 262
EndSplineSet
EndChar

StartChar: one
Encoding: 49 49 3
Width: 600
VWidth: 1920
Flags: HMW
LayerCount: 2
Fore
SplineSet
413 1374 m 0
 465 1376 500 1397 521 1440 c 0
 525 1447 529 1450 536 1450 c 2
 600 1450 l 2
 607 1450 609 1447 607 1440 c 2
 277 10 l 2
 275 3 272 0 265 0 c 2
 95 0 l 2
 88 0 85 3 87 10 c 2
 400 1364 l 2
 402 1371 405 1374 413 1374 c 0
EndSplineSet
EndChar

StartChar: two
Encoding: 50 50 4
Width: 1080
VWidth: 1920
Flags: HMW
LayerCount: 2
Fore
SplineSet
-26 60 m 262
 100 604 834 736 903 1033 c 262
 914 1078 l 262
 939 1188 883 1285 726 1285 c 260
 556 1285 436 1175 396 1002 c 262
 376 912 l 6
 374 905 370 902 363 902 c 6
 203 902 l 6
 196 902 194 905 196 912 c 6
 216 1002 l 262
 279 1276 493 1435 770 1435 c 260
 1017 1435 1146 1303 1093 1073 c 262
 1082 1028 l 262
 991 632 296 501 222 180 c 262
 219 170 l 261
 909 170 l 6
 916 170 919 167 917 160 c 6
 882 10 l 6
 880 3 877 0 870 0 c 6
 -30 0 l 6
 -37 0 -40 3 -38 10 c 6
 -26 60 l 262
EndSplineSet
EndChar

StartChar: three
Encoding: 51 51 5
Width: 1100
VWidth: 1920
Flags: HMW
LayerCount: 2
Fore
SplineSet
64 407 m 6
 234 407 l 6
 241 407 244 404 242 397 c 6
 225 327 l 6
 197 207 288 115 447 115 c 4
 614 115 756 222 786 352 c 6
 808 447 l 6
 838 577 739 660 562 660 c 6
 482 660 l 6
 475 660 473 663 475 670 c 6
 505 800 l 6
 507 807 510 810 517 810 c 6
 577 810 l 6
 744 810 858 903 886 1023 c 6
 901 1088 l 6
 926 1198 883 1285 716 1285 c 4
 566 1285 449 1185 418 1052 c 6
 397 962 l 6
 395 955 392 952 385 952 c 6
 225 952 l 6
 218 952 215 955 217 962 c 6
 238 1052 l 6
 292 1286 508 1435 755 1435 c 4
 1002 1435 1148 1313 1095 1083 c 6
 1089 1058 l 6
 1031 808 813 720 556 720 c 5
 588 770 l 5
 845 770 1050 672 992 422 c 6
 975 347 l 6
 920 107 699 -35 402 -35 c 4
 150 -35 -18 99 35 327 c 6
 52 397 l 6
 54 404 57 407 64 407 c 6
EndSplineSet
EndChar

StartChar: four
Encoding: 52 52 6
Width: 1045
VWidth: 1920
Flags: HMW
LayerCount: 2
Fore
SplineSet
999 470 m 2
 968 340 l 2
 966 333 963 330 956 330 c 2
 776 330 l 257
 702 10 l 2
 700 3 697 0 690 0 c 2
 520 0 l 2
 513 0 510 3 512 10 c 2
 586 330 l 257
 16 330 l 2
 9 330 6 333 8 340 c 2
 43 490 l 2
 45 497 48 503 55 510 c 2
 894 1390 l 6
 899 1395 906 1400 913 1400 c 6
 1013 1400 l 2
 1020 1400 1023 1397 1021 1390 c 2
 811 480 l 257
 991 480 l 2
 998 480 1001 477 999 470 c 2
631 480 m 257
 765 1061 l 257
 196 480 l 257
 631 480 l 257
EndSplineSet
EndChar

StartChar: five
Encoding: 53 53 7
Width: 1100
VWidth: 1920
Flags: HMW
LayerCount: 2
Fore
SplineSet
85 368 m 6
 235 368 l 6
 242 368 244 365 244 359 c 4
 221 202 292 105 439 105 c 4
 588 105 737 205 782 398 c 6
 811 523 l 6
 857 723 765 805 631 805 c 4
 545 805 440 765 359 664 c 4
 352 656 348 653 341 653 c 6
 171 653 l 6
 164 653 161 655 164 663 c 6
 441 1390 l 6
 444 1397 447 1400 454 1400 c 6
 1134 1400 l 6
 1141 1400 1144 1397 1142 1390 c 6
 1127 1325 l 6
 1111 1255 1080 1250 910 1250 c 6
 555 1250 l 5
 344 745 l 5
 321 745 l 5
 404 868 550 955 710 955 c 4
 910 955 1063 790 994 493 c 6
 979 428 l 6
 910 131 677 -35 407 -35 c 4
 173 -35 31 101 74 358 c 4
 76 365 78 368 85 368 c 6
EndSplineSet
EndChar

StartChar: six
Encoding: 54 54 8
Width: 1229
VWidth: 1920
Flags: HMW
LayerCount: 2
Fore
SplineSet
681 740 m 260
 531 740 346 675 304 492 c 262
 287 422 l 261
 251 522 l 261
 312 786 548 890 755 890 c 260
 1012 890 1168 731 1105 457 c 262
 1093 407 l 262
 1029 129 793 -35 501 -35 c 260
 124 -35 44 167 127 527 c 262
 200 843 l 262
 288 1223 504 1435 831 1435 c 260
 1128 1435 1236 1266 1194 1082 c 262
 1187 1052 l 6
 1185 1045 1182 1042 1175 1042 c 6
 1025 1042 l 6
 1018 1042 1015 1045 1017 1052 c 6
 1024 1082 l 262
 1043 1165 997 1285 817 1285 c 260
 590 1285 452 1138 383 838 c 262
 287 422 l 262
 243 232 339 115 526 115 c 260
 725 115 863 237 905 417 c 262
 915 457 l 262
 957 640 871 740 681 740 c 260
EndSplineSet
EndChar

StartChar: seven
Encoding: 55 55 9
Width: 1015
VWidth: 1920
Flags: HMW
LayerCount: 2
Fore
SplineSet
1212 1390 m 2
 321 10 l 2
 316 3 312 0 305 0 c 2
 115 0 l 2
 108 0 106 3 111 10 c 2
 951 1240 l 257
 251 1240 l 2
 244 1240 242 1243 244 1250 c 2
 276 1390 l 2
 278 1397 281 1400 288 1400 c 2
 1208 1400 l 2
 1215 1400 1216 1396 1212 1390 c 2
EndSplineSet
EndChar

StartChar: eight
Encoding: 56 56 10
Width: 1182
VWidth: 1920
Flags: HMW
LayerCount: 2
Fore
SplineSet
496 110 m 260
 676 110 802 196 836 342 c 262
 856 427 l 262
 890 574 804 660 623 660 c 260
 442 660 318 574 284 427 c 262
 264 342 l 262
 230 196 316 110 496 110 c 260
658 810 m 260
 808 810 912 887 943 1023 c 262
 958 1088 l 262
 987 1215 917 1290 769 1290 c 260
 621 1290 515 1215 486 1088 c 262
 471 1023 l 262
 440 887 508 810 658 810 c 260
677 760 m 261
 957 760 1092 624 1038 392 c 262
 1027 347 l 262
 970 100 771 -35 463 -35 c 260
 155 -35 18 100 75 347 c 262
 86 392 l 262
 140 624 335 760 615 760 c 261
 608 720 l 261
 343 725 238 837 289 1058 c 262
 295 1083 l 262
 346 1304 534 1435 802 1435 c 260
 1070 1435 1198 1304 1147 1083 c 262
 1141 1058 l 262
 1090 837 933 725 666 720 c 261
 677 760 l 261
EndSplineSet
EndChar

StartChar: nine
Encoding: 57 57 11
Width: 1169
VWidth: 1920
Flags: HMW
LayerCount: 2
Fore
SplineSet
601 660 m 256
 751 660 913 755 958 948 c 258
 974 1018 l 257
 1011 918 l 257
 948 644 734 510 527 510 c 256
 290 510 145 669 208 943 c 258
 219 993 l 258
 283 1271 509 1435 781 1435 c 256
 1138 1435 1211 1243 1135 913 c 258
 1053 557 l 258
 965 177 738 -35 431 -35 c 256
 134 -35 46 134 88 318 c 258
 95 348 l 2
 97 355 101 358 108 358 c 2
 258 358 l 2
 265 358 267 355 265 348 c 2
 258 318 l 258
 239 235 266 115 446 115 c 256
 653 115 800 262 869 562 c 258
 974 1018 l 258
 1009 1168 924 1285 757 1285 c 256
 578 1285 449 1163 407 983 c 258
 398 943 l 258
 356 760 431 660 601 660 c 256
EndSplineSet
EndChar

StartChar: A
Encoding: 65 65 12
Width: 1238
VWidth: 1872
Flags: HMW
AnchorPoint: "ogonek" 1010 0 basechar 0
AnchorPoint: "bottom" 505 0 basechar 0
AnchorPoint: "top" 827 1400 basechar 0
LayerCount: 2
Fore
SplineSet
311 566 m 1
 920 566 l 1
 886 420 l 1
 277 420 l 1
 311 566 l 1
777 1227 m 5
 110 10 l 6
 107 4 102 0 95 0 c 6
 -71 0 l 2
 -78 0 -79 4 -76 10 c 2
 704 1390 l 2
 707 1396 712 1400 719 1400 c 2
 916 1400 l 2
 923 1400 925 1396 926 1390 c 2
 1079 10 l 2
 1080 4 1077 0 1070 0 c 2
 904 0 l 6
 897 0 893 3 893 10 c 6
 777 1227 l 5
EndSplineSet
EndChar

StartChar: B
Encoding: 66 66 13
Width: 1240
VWidth: 1872
Flags: HMW
AnchorPoint: "top" 827 1400 basechar 0
AnchorPoint: "bottom" 505 0 basechar 0
LayerCount: 2
Fore
SplineSet
414 788 m 1
 730 788 l 2
 891 788 991 859 1019 980 c 2
 1040 1071 l 2
 1068 1192 998 1253 837 1253 c 2
 521 1253 l 1
 414 788 l 1
741 749 m 1
 990 749 1189 653 1132 406 c 2
 1117 342 l 2
 1053 66 818 0 568 0 c 2
 55 0 l 2
 48 0 45 3 47 10 c 2
 366 1390 l 2
 368 1397 371 1400 378 1400 c 2
 871 1400 l 2
 1121 1400 1293 1315 1236 1068 c 2
 1227 1033 l 2
 1170 786 959 700 710 700 c 1
 741 749 l 1
715 641 m 2
 380 641 l 1
 266 147 l 1
 601 147 l 2
 772 147 892 217 920 338 c 2
 943 439 l 2
 971 560 887 641 715 641 c 2
EndSplineSet
EndChar

StartChar: C
Encoding: 67 67 14
Width: 1340
VWidth: 1872
Flags: HMW
AnchorPoint: "top" 907 1400 basechar 0
AnchorPoint: "bottom" 565 0 basechar 0
LayerCount: 2
Fore
SplineSet
1225 503 m 0
 1205 437 1179 375 1145 315 c 0
 1028 110 853 -34 574 -34 c 0
 198 -34 31 232 117 605 c 2
 161 796 l 2
 247 1169 488 1434 863 1434 c 0
 1137 1434 1310 1312 1310 1134 c 0
 1310 1081.53096151 1294 975 1263 918 c 0
 1258.59472656 909.900390625 1258 908 1251 908 c 2
 1105 908 l 2
 1098 908 1092.73436659 909.826688423 1097 918 c 0
 1240 1192 1071 1296 861 1296 c 0
 593 1296 422.93642641 1081.31808107 359 806 c 2
 310 595 l 2
 249 330 319 104 586 104 c 0
 815 104 1010 278 1059 503 c 0
 1061 512 1063 513 1070 513 c 2
 1217 513 l 2
 1224 513 1228 512 1225 503 c 0
EndSplineSet
EndChar

StartChar: D
Encoding: 68 68 15
Width: 1336
VWidth: 1872
Flags: HMW
AnchorPoint: "top" 857 1400 basechar 0
AnchorPoint: "bottom" 505 0 basechar 0
LayerCount: 2
Fore
SplineSet
591 0 m 6
 55 0 l 2
 48 0 45 3 47 10 c 2
 366 1390 l 2
 368 1397 371 1400 378 1400 c 2
 854 1400 l 2
 1161 1400 1390 1174 1303 795 c 2
 1259 606 l 2
 1171 226 937 0 591 0 c 6
557 147 m 2
 803 147 993 302 1061 596 c 2
 1109 804 l 2
 1177 1097 1058 1253 812 1253 c 2
 521 1253 l 1
 266 147 l 1
 557 147 l 2
EndSplineSet
EndChar

StartChar: E
Encoding: 69 69 16
Width: 1238
VWidth: 1872
Flags: HMW
AnchorPoint: "ogonek" 980 0 basechar 0
AnchorPoint: "top" 887 1400 basechar 0
AnchorPoint: "bottom" 565 0 basechar 0
LayerCount: 2
Fore
SplineSet
414 788 m 1
 932 788 l 2
 939 788 942 785 940 778 c 2
 910 651 l 2
 908 644 905 641 898 641 c 2
 380 641 l 1
 266 147 l 1
 1045 147 l 2
 1052 147 1055 144 1053 137 c 2
 1023 10 l 2
 1021 3 1018 0 1011 0 c 2
 55 0 l 2
 48 0 45 3 47 10 c 2
 366 1390 l 2
 368 1397 371 1400 378 1400 c 2
 1315 1400 l 2
 1322 1400 1324 1397 1322 1390 c 2
 1293 1263 l 2
 1291 1256 1288 1253 1281 1253 c 2
 521 1253 l 1
 414 788 l 1
EndSplineSet
EndChar

StartChar: F
Encoding: 70 70 17
Width: 1131
VWidth: 1872
Flags: HMW
AnchorPoint: "top" 847 1400 basechar 0
AnchorPoint: "bottom" 525 0 basechar 0
LayerCount: 2
Fore
SplineSet
414 788 m 1
 847 788 l 2
 855 788 857 786 855 778 c 2
 825 651 l 2
 823 643 821 641 813 641 c 2
 380 641 l 1
 234 10 l 2
 232 2 230 0 222 0 c 2
 55 0 l 2
 47 0 45 2 47 10 c 2
 366 1390 l 2
 368 1397 371 1400 378 1400 c 2
 1266 1400 l 2
 1273 1400 1276 1397 1274 1390 c 2
 1245 1263 l 2
 1243 1256 1239 1253 1232 1253 c 2
 521 1253 l 1
 414 788 l 1
EndSplineSet
EndChar

StartChar: G
Encoding: 71 71 18
Width: 1340
VWidth: 1872
Flags: HMW
AnchorPoint: "top" 897 1400 basechar 0
AnchorPoint: "bottom" 575 0 basechar 0
LayerCount: 2
Fore
SplineSet
739 577 m 2
 767 699 l 2
 769 706 773 709 780 709 c 2
 1263 709 l 2
 1270 709 1272 706 1270 699 c 2
 1111 10 l 2
 1109 3 1106 0 1099 0 c 2
 1011 0 l 2
 1004 0 1001 3 1001 10 c 2
 997 315 l 1
 1154 621 l 1
 1043 227 873 -34 554 -34 c 0
 188 -34 30 230 117 606 c 2
 161 795 l 2
 247 1169 477 1434 853 1434 c 0
 1130 1434 1268 1320 1302 1166 c 0
 1316 1104 1316 1037 1303 968 c 0
 1301 959 1298 958 1291 958 c 2
 1154 958 l 2
 1147 958 1144 959 1146 968 c 0
 1192 1175 1061 1297 851 1297 c 0
 603 1297 426.938202247 1098.3988764 359 804 c 2
 311 596 l 2
 249 328 329 103 596 103 c 0
 805 103 985 267 1090 616 c 1
 1091 567 l 1
 747 567 l 2
 740 567 737 570 739 577 c 2
EndSplineSet
EndChar

StartChar: H
Encoding: 72 72 19
Width: 1336
VWidth: 1872
Flags: HMW
AnchorPoint: "top" 857 1400 basechar 0
AnchorPoint: "bottom" 535 0 basechar 0
LayerCount: 2
Fore
SplineSet
1217 1400 m 2
 1383 1400 l 2
 1390 1400 1393 1397 1391 1390 c 2
 1072 10 l 2
 1070 3 1067 0 1060 0 c 2
 894 0 l 2
 887 0 884 3 886 10 c 2
 1032 641 l 1
 360 641 l 1
 214 10 l 2
 212 3 209 0 202 0 c 2
 36 0 l 2
 29 0 26 3 28 10 c 2
 347 1390 l 18
 349 1397 352 1400 359 1400 c 10
 525 1400 l 18
 532 1400 535 1397 533 1390 c 10
 394 788 l 1
 1066 788 l 1
 1205 1390 l 2
 1207 1397 1210 1400 1217 1400 c 2
EndSplineSet
EndChar

StartChar: I
Encoding: 73 73 20
Width: 536
VWidth: 1872
Flags: HMW
AnchorPoint: "ogonek" 160 0 basechar 0
AnchorPoint: "top" 482 1400 basechar 0
AnchorPoint: "bottom" 160 0 basechar 0
LayerCount: 2
Fore
SplineSet
388 1400 m 10
 555 1400 l 18
 562 1400 564 1397 562 1390 c 10
 243 10 l 18
 241 3 239 0 232 0 c 10
 65 0 l 18
 58 0 55 3 57 10 c 10
 376 1390 l 18
 378 1397 381 1400 388 1400 c 10
EndSplineSet
EndChar

StartChar: J
Encoding: 74 74 21
Width: 923
VWidth: 1872
Flags: HMW
AnchorPoint: "top" 912 1400 basechar 0
AnchorPoint: "bottom" 290 0 basechar 0
LayerCount: 2
Fore
SplineSet
786 1400 m 6
 962 1400 l 6
 969 1400 972 1397 970 1390 c 6
 770 525 l 6
 682.840876653 148.036791525 537 -34 263 -34 c 4
 26 -34 -40.8330078125 171.23046875 90 466 c 6
 173 653 l 6
 175 660 177 663 184 663 c 6
 331 663 l 6
 338 663 341 660 339 653 c 6
 258 476 l 6
 161.37109375 264.84765625 170 122 287 122 c 4
 393 122 508.240752766 240.944317517 567 495 c 6
 774 1390 l 6
 776 1397 779 1400 786 1400 c 6
EndSplineSet
EndChar

StartChar: K
Encoding: 75 75 22
Width: 1239
VWidth: 1872
Flags: HMW
AnchorPoint: "top" 827 1400 basechar 0
AnchorPoint: "bottom" 505 0 basechar 0
LayerCount: 2
Fore
SplineSet
359 1400 m 10
 525 1400 l 18
 532 1400 535 1397 533 1390 c 10
 214 10 l 18
 212 3 209 0 202 0 c 10
 36 0 l 18
 29 0 26 3 28 10 c 10
 347 1390 l 18
 349 1397 352 1400 359 1400 c 10
544 816 m 1
 726 849 l 1
 1095 10 l 2
 1099 2 1097 0 1090 0 c 2
 904 0 l 2
 897 0 893 2 890 10 c 2
 544 816 l 1
1167 1390 m 2
 1173 1394 1179 1400 1189 1400 c 2
 1398 1400 l 2
 1411 1400 1410 1397 1401 1390 c 2
 688 794 l 1
 636 754 l 1
 245 432 l 1
 215 568 l 5
 1167 1390 l 2
EndSplineSet
EndChar

StartChar: L
Encoding: 76 76 23
Width: 1031
VWidth: 1872
Flags: HMW
AnchorPoint: "top" 467 1400 basechar 0
AnchorPoint: "bottom" 505 0 basechar 0
LayerCount: 2
Fore
SplineSet
359 1400 m 2
 525 1400 l 2
 532 1400 535 1397 533 1390 c 2
 246 147 l 25
 870 147 l 2
 877 147 880 144 878 137 c 2
 848 10 l 2
 846 3 843 0 836 0 c 2
 36 0 l 2
 29 0 26 3 28 10 c 2
 347 1390 l 2
 349 1397 352 1400 359 1400 c 2
EndSplineSet
EndChar

StartChar: M
Encoding: 77 77 24
Width: 1551
VWidth: 1872
Flags: HMW
AnchorPoint: "top" 1007 1400 basechar 0
AnchorPoint: "bottom" 685 0 basechar 0
LayerCount: 2
Fore
SplineSet
454 1216 m 1
 175 10 l 2
 173 3 170 0 163 0 c 2
 36 0 l 2
 29 0 26 3 28 10 c 2
 347 1390 l 2
 349 1397 352 1400 359 1400 c 2
 575 1400 l 6
 582 1400 585 1397 586 1390 c 6
 731 323 l 5
 1358 1390 l 6
 1363 1397 1367 1400 1374 1400 c 6
 1599 1400 l 2
 1606 1400 1608 1397 1606 1390 c 2
 1287 10 l 2
 1285 3 1283 0 1276 0 c 2
 1128 0 l 2
 1121 0 1119 3 1121 10 c 2
 1388 1166 l 1
 701 10 l 2
 696 3 692 0 685 0 c 2
 626 0 l 2
 619 0 615 3 614 10 c 2
 454 1216 l 1
EndSplineSet
EndChar

StartChar: N
Encoding: 78 78 25
Width: 1336
VWidth: 1872
Flags: HMW
AnchorPoint: "top" 897 1400 basechar 0
AnchorPoint: "bottom" 565 0 basechar 0
LayerCount: 2
Fore
SplineSet
1237 1400 m 2
 1383 1400 l 2
 1390 1400 1393 1397 1391 1390 c 2
 1072 10 l 2
 1070 3 1067 0 1060 0 c 2
 1012 0 l 2
 1005 0 1000 2 997 10 c 2
 444 1179 l 1
 464 1179 l 1
 194 10 l 2
 192 3 190 0 183 0 c 2
 36 0 l 2
 29 0 26 3 28 10 c 2
 347 1390 l 2
 349 1397 352 1400 359 1400 c 2
 526 1400 l 6
 534 1400 536 1398 540 1390 c 6
 1013 384 l 1
 993 384 l 1
 1225 1390 l 2
 1227 1397 1230 1400 1237 1400 c 2
EndSplineSet
EndChar

StartChar: O
Encoding: 79 79 26
Width: 1440
VWidth: 1872
Flags: HMW
AnchorPoint: "top" 947 1400 basechar 0
AnchorPoint: "bottom" 625 0 basechar 0
LayerCount: 2
Fore
SplineSet
116 603 m 2
 161 798 l 2
 248 1176 531 1434 901 1434 c 0
 1281 1434 1494 1176 1407 798 c 2
 1362 603 l 2
 1275 224 992 -34 622 -34 c 0
 252 -34 29 224 116 603 c 2
310 593 m 2
 242 300 400 103 624 103 c 0
 878 103 1096 300 1164 593 c 2
 1214 808 l 2
 1281 1100 1123 1297 899 1297 c 0
 645 1297 427 1100 360 808 c 2
 310 593 l 2
EndSplineSet
EndChar

StartChar: P
Encoding: 80 80 27
Width: 1238
VWidth: 1872
Flags: HMW
AnchorPoint: "top" 827 1400 basechar 0
AnchorPoint: "bottom" 155 0 basechar 0
LayerCount: 2
Fore
SplineSet
521 1253 m 1
 404 747 l 1
 728 747 l 2
 890 747 1009 814 1037 934 c 2
 1067 1067 l 2
 1095 1187 1007 1253 845 1253 c 6
 521 1253 l 1
838 1400 m 2
 1117 1400 1319 1305 1257 1038 c 2
 1239 963 l 2
 1177 696 1012 601 733 601 c 2
 371 601 l 1
 234 10 l 2
 232 3 229 0 222 0 c 2
 55 0 l 2
 48 0 45 3 47 10 c 2
 366 1390 l 2
 368 1397 371 1400 378 1400 c 2
 838 1400 l 2
EndSplineSet
EndChar

StartChar: Q
Encoding: 81 81 28
Width: 1550
VWidth: 1872
Flags: HMW
AnchorPoint: "top" 947 1400 basechar 0
AnchorPoint: "bottom" 625 0 basechar 0
LayerCount: 2
Fore
SplineSet
1383 109 m 2
 1360 10 l 2
 1358 3 1357 0 1345 -3 c 0
 1129 -54 1042 90 1102 349 c 5
 1210 573 l 1
 1131 232 1008 -34 594 -34 c 0
 161 -34 69 232 148 573 c 2
 207 828 l 2
 286 1169 460 1434 903 1434 c 0
 1346 1434 1457 1169 1378 828 c 2
 1261 321 l 2
 1229 181 1284 123 1373 119 c 0
 1385 118 1385 116 1383 109 c 2
1117 544 m 2
 1189 857 l 2
 1250 1120 1158 1297 891 1297 c 0
 624 1297 471 1120 410 857 c 2
 338 544 l 2
 277 281 359 103 626 103 c 0
 893 103 1056 281 1117 544 c 2
EndSplineSet
EndChar

StartChar: R
Encoding: 82 82 29
Width: 1336
VWidth: 1872
Flags: HMW
AnchorPoint: "top" 877 1400 basechar 0
AnchorPoint: "bottom" 555 0 basechar 0
LayerCount: 2
Fore
SplineSet
521 1253 m 1
 414 788 l 1
 766 788 l 2
 928 788 1057 854 1085 974 c 2
 1106 1067 l 2
 1134 1187 1075 1253 913 1253 c 2
 521 1253 l 1
927 1400 m 2
 1178 1400 1348.74098361 1262.64918033 1298 1047 c 2
 1290 1013 l 2
 1235 776 1011 680 761 680 c 1
 785 739 l 1
 1035 739 1199 662 1145 428 c 2
 1121 323 l 2
 1094 208 1105 125 1135 59 c 0
 1139 48 1139 45 1138 39 c 2
 1131 10 l 2
 1129 3 1126 0 1119 0 c 2
 953 0 l 2
 946 0 943 0 940 9 c 0
 908 106 913 233 934 323 c 6
 965 458 l 6
 992 575 902 641 740 641 c 6
 380 641 l 1
 234 10 l 2
 232 3 229 0 222 0 c 2
 55 0 l 2
 48 0 45 3 47 10 c 2
 366 1390 l 2
 368 1397 371 1400 378 1400 c 2
 927 1400 l 2
EndSplineSet
EndChar

StartChar: S
Encoding: 83 83 30
Width: 1238
VWidth: 1872
Flags: HMW
AnchorPoint: "top" 827 1400 basechar 0
AnchorPoint: "bottom" 525 0 basechar 0
LayerCount: 2
Fore
SplineSet
105 509 m 2
 252 509 l 2
 255 509 262 508 260 501 c 0
 252 466 249.670624678 452.076762465 244 427 c 4
 199 228 345 113 534 113 c 4
 723 113 913.942196175 132.826394714 941 314 c 0
 968.823735203 500.302127544 819 565 651 622 c 0
 439 694 190.907226562 798.127929688 256 1099 c 0
 301 1307 505 1434 791 1434 c 0
 1104 1434 1264 1261 1214 1046 c 2
 1196 968 l 2
 1194 961 1190 960 1185 960 c 2
 1038 960 l 2
 1033 960 1028 961 1030 968 c 0
 1035 994 1038 1007 1045 1037 c 0
 1077 1174 976 1287 779 1287 c 0
 589 1287 471.122070312 1226.97167969 437 1078 c 0
 396 899 572 827 753 765 c 0
 962 695 1182.12109375 628.69140625 1129 323 c 0
 1086.05566406 75.87109375 877 -34 540 -34 c 0
 195 -34 15 167 69 401 c 2
 93 500 l 2
 95 507 102 509 105 509 c 2
EndSplineSet
EndChar

StartChar: T
Encoding: 84 84 31
Width: 1131
VWidth: 1872
Flags: HMW
AnchorPoint: "top" 787 1400 basechar 0
AnchorPoint: "bottom" 425 0 basechar 0
LayerCount: 2
Fore
SplineSet
252 1400 m 2
 1286 1400 l 2
 1293 1400 1296 1397 1294 1390 c 2
 1265 1263 l 2
 1263 1256 1259 1253 1252 1253 c 2
 828 1253 l 1
 541 10 l 2
 539 3 536 0 529 0 c 2
 363 0 l 2
 356 0 353 3 355 10 c 2
 642 1253 l 1
 218 1253 l 2
 211 1253 209 1256 211 1263 c 2
 240 1390 l 2
 242 1397 245 1400 252 1400 c 2
EndSplineSet
EndChar

StartChar: U
Encoding: 85 85 32
Width: 1344
VWidth: 1872
Flags: HMW
AnchorPoint: "ogonek" 680 0 basechar 0
AnchorPoint: "top" 907 1400 basechar 0
AnchorPoint: "bottom" 585 0 basechar 0
LayerCount: 2
Fore
SplineSet
1009 475 m 2
 1220 1390 l 2
 1222 1397 1224 1400 1231 1400 c 2
 1378 1400 l 2
 1385 1400 1388 1397 1386 1390 c 2
 1177 485 l 2
 1108 173 995 -34 610 -34 c 4
 169 -34 86 200 172 571 c 2
 361 1390 l 2
 363 1397 366 1400 373 1400 c 2
 550 1400 l 2
 557 1400 559 1397 557 1390 c 2
 361 542 l 2
 294 251 366 103 622 103 c 4
 840 103 951 223 1009 475 c 2
EndSplineSet
EndChar

StartChar: V
Encoding: 86 86 33
Width: 1238
VWidth: 1872
Flags: HMW
AnchorPoint: "top" 857 1400 basechar 0
AnchorPoint: "bottom" 535 0 basechar 0
LayerCount: 2
Fore
SplineSet
540 172 m 5
 1207 1390 l 6
 1211 1397 1215 1400 1222 1400 c 6
 1393 1400 l 2
 1400 1400 1402 1397 1398 1390 c 2
 617 10 l 2
 612 2 609 0 602 0 c 2
 406 0 l 2
 399 0 395 3 395 10 c 2
 243 1390 l 2
 243 1397 244 1400 251 1400 c 2
 413 1400 l 6
 420 1400 424 1397 424 1390 c 6
 540 172 l 5
EndSplineSet
EndChar

StartChar: W
Encoding: 87 87 34
Width: 1755
VWidth: 1872
Flags: HMW
AnchorPoint: "top" 1122 1400 basechar 0
AnchorPoint: "bottom" 805 0 basechar 0
LayerCount: 2
Fore
SplineSet
428 209 m 5
 1026 1390 l 6
 1029 1396 1034 1400 1041 1400 c 6
 1140 1400 l 6
 1147 1400 1150 1396 1151 1390 c 6
 1188 193 l 5
 1743 1390 l 6
 1746 1396 1751 1400 1758 1400 c 6
 1929 1400 l 2
 1936 1400 1937 1396 1934 1390 c 2
 1258 10 l 2
 1254 3 1251 0 1244 0 c 2
 1047 0 l 2
 1040 0 1036 3 1036 10 c 2
 1008 1050 l 1
 493 10 l 2
 489 3 485 0 478 0 c 2
 286 0 l 2
 279 0 276 3 276 10 c 2
 247 1390 l 2
 246 1396 249 1400 256 1400 c 2
 413 1400 l 6
 420 1400 423 1396 424 1390 c 6
 428 209 l 5
EndSplineSet
EndChar

StartChar: X
Encoding: 88 88 35
Width: 1239
VWidth: 1872
Flags: HMW
AnchorPoint: "top" 837 1400 basechar 0
AnchorPoint: "bottom" 515 0 basechar 0
LayerCount: 2
Fore
SplineSet
1183 1400 m 2
 1355 1400 l 2
 1362 1400 1362 1397 1355 1390 c 2
 766 715 l 1
 1066 10 l 2
 1069 2 1068 0 1061 0 c 2
 865 0 l 2
 858 0 854 3 851 10 c 2
 624 602 l 5
 128 10 l 2
 120 2 117 0 110 0 c 2
 -62 0 l 2
 -69 0 -70 2 -63 10 c 2
 565 736 l 5
 286 1390 l 2
 283 1398 283 1400 290 1400 c 2
 487 1400 l 2
 495 1400 498 1397 501 1390 c 2
 708 849 l 1
 1165 1390 l 2
 1172 1398 1176 1400 1183 1400 c 2
EndSplineSet
EndChar

StartChar: Y
Encoding: 89 89 36
Width: 1239
VWidth: 1872
Flags: HMW
AnchorPoint: "top" 847 1400 basechar 0
AnchorPoint: "bottom" 525 0 basechar 0
LayerCount: 2
Fore
SplineSet
1222 1400 m 2
 1394 1400 l 2
 1401 1400 1402 1397 1396 1390 c 2
 721 554 l 1
 595 10 l 2
 593 3 590 0 583 0 c 2
 416 0 l 2
 409 0 407 3 409 10 c 2
 535 554 l 1
 246 1390 l 2
 243 1398 245 1400 252 1400 c 2
 433 1400 l 2
 440 1400 445 1397 447 1390 c 2
 668 730 l 5
 1204 1390 l 2
 1210 1397 1215 1400 1222 1400 c 2
EndSplineSet
EndChar

StartChar: Z
Encoding: 90 90 37
Width: 1131
VWidth: 1872
Flags: HMW
AnchorPoint: "top" 817 1400 basechar 0
AnchorPoint: "bottom" 495 0 basechar 0
LayerCount: 2
Fore
SplineSet
-141 10 m 2
 985 1253 l 5
 285 1253 l 2
 278 1253 277 1256 279 1263 c 2
 308 1390 l 2
 310 1397 312 1400 319 1400 c 2
 1315 1400 l 2
 1322 1400 1323 1398 1316 1390 c 2
 190 147 l 1
 968 147 l 2
 975 147 978 144 976 137 c 2
 946 10 l 2
 944 3 941 0 934 0 c 2
 -140 0 l 2
 -147 0 -149 2 -141 10 c 2
EndSplineSet
EndChar

StartChar: a
Encoding: 97 97 38
Width: 1123
VWidth: 1872
Flags: HMW
AnchorPoint: "ogonek" 810 0 basechar 0
AnchorPoint: "top" 676 1050 basechar 0
AnchorPoint: "bottom" 405 0 basechar 0
LayerCount: 2
Fore
SplineSet
782 406 m 1
 717 123 538 -35 347 -35 c 0
 146 -35 -23 103 54 435 c 2
 95 614 l 2
 167 926 396 1084 597 1084 c 0
 817 1084 902 926 837 644 c 1
 795 625 l 1
 842 830 765 947 614 947 c 0
 472 947 335 847 288 643 c 2
 233 406 l 2
 186 202 277 103 419 103 c 0
 571 103 702 221 749 425 c 1
 782 406 l 1
991 98 m 2
 970 10 l 2
 968 3 966 0 959 -1 c 0
 711 -37 661 43 708 246 c 2
 853 878 l 25
 1029 1074 l 2
 1036 1082 1041 1084 1048 1084 c 2
 1077 1084 l 2
 1084 1084 1087 1081 1085 1074 c 2
 885 206 l 2
 863 112 876 88 984 106 c 0
 990 107 993 105 991 98 c 2
EndSplineSet
EndChar

StartChar: b
Encoding: 98 98 39
Width: 1100
VWidth: 1872
Flags: HMW
LayerCount: 2
Fore
SplineSet
341 1450 m 2
 508 1450 l 2
 515 1450 517 1447 515 1440 c 2
 222 171 l 1
 46 -24 l 2
 39 -31 35 -34 28 -34 c 2
 -2 -34 l 2
 -9 -34 -11 -31 -9 -24 c 2
 329 1440 l 2
 331 1447 334 1450 341 1450 c 2
304 644 m 1
 369 927 515 1084 706 1084 c 0
 907 1084 1126 946 1049 614 c 2
 1008 436 l 2
 936 124 688 -34 487 -34 c 0
 267 -34 164 123 229 405 c 1
 281 425 l 1
 234 220 319 113 470 113 c 0
 612 113 768 203 815 407 c 2
 869 643 l 2
 916 847 807 947 665 947 c 0
 513 947 374 829 327 625 c 1
 304 644 l 1
EndSplineSet
EndChar

StartChar: c
Encoding: 99 99 40
Width: 968
VWidth: 1872
Flags: HMW
AnchorPoint: "bottom" 410 0 basechar 0
AnchorPoint: "top" 646 1050 basechar 0
LayerCount: 2
Fore
SplineSet
893 380 m 0
 880 335 863.186523438 292.877929688 845 253 c 0
 762 71 623 -34 425 -34 c 0
 153 -34 -23 146 44 437 c 2
 85 614 l 2
 152 904 337 1084 609 1084 c 0
 810 1084 969 1023 969 823 c 0
 969 771.890625 947 708 930 670 c 0
 928 665 925 663 918 663 c 2
 792 663 l 6
 785 663 782 666 784 670 c 4
 805 716 816 770.654296875 816 807 c 4
 816 909 715 947 603 947 c 0
 455 947 323 838 278 643 c 2
 224 408 l 2
 180 220 280 104 433 104 c 0
 543 104 633 159 683 253 c 0
 703.859375 292.215820312 723 333 737 381 c 0
 738 385 741 388 748 388 c 2
 885 388 l 2
 892 388 894 385 893 380 c 0
EndSplineSet
EndChar

StartChar: d
Encoding: 100 100 41
Width: 1100
VWidth: 1872
Flags: HMW
LayerCount: 2
Fore
SplineSet
819 406 m 1
 754 123 585 -34 394 -34 c 4
 193 -34 -23 104 54 436 c 2
 95 614 l 2
 172 946 421 1084 622 1084 c 0
 813 1084 919 927 854 644 c 1
 822 625 l 1
 869 829 783 947 631 947 c 0
 489 947 335 847 288 643 c 2
 234 407 l 2
 187 203 294 103 436 103 c 0
 588 103 729 221 776 425 c 1
 819 406 l 1
1196 1440 m 2
 866 10 l 2
 864 3 861 0 854 0 c 2
 702 0 l 2
 695 0 692 3 694 10 c 2
 741 214 l 1
 735 246 l 1
 1010 1440 l 2
 1012 1447 1015 1450 1022 1450 c 2
 1189 1450 l 2
 1196 1450 1198 1447 1196 1440 c 2
EndSplineSet
EndChar

StartChar: e
Encoding: 101 101 42
Width: 1074
VWidth: 1872
Flags: HMW
AnchorPoint: "ogonek" 664 60 basechar 0
AnchorPoint: "bottom" 434 0 basechar 0
AnchorPoint: "top" 687 1050 basechar 0
LayerCount: 2
Fore
SplineSet
939 333 m 0
 916 281 900.338867188 239.180664062 876 193 c 0
 798 45 643 -34 466 -34 c 4
 203 -34 14 134 84 437 c 2
 125 614 l 2
 193 907 362 1084 632 1084 c 0
 892 1084 1047 893 1022 683 c 0
 1013.18778606 608.977402873 1006 580 986 493 c 0
 985 488 981 485 974 485 c 2
 216 485 l 1
 243 592 l 1
 830 592 l 1
 909 837 781 967 623 967 c 0
 472 967 364 847 317 643 c 2
 263 408 l 2
 214 194 312 83 473 83 c 4
 631 83 727 181 774 336 c 0
 775.297718807 340.27971096 779 342 786 342 c 2
 933 342 l 2
 940 342 941 339 939 333 c 0
EndSplineSet
EndChar

StartChar: f
Encoding: 102 102 43
Width: 602
VWidth: 1872
Flags: HMW
LayerCount: 2
Fore
SplineSet
656 943 m 2
 162 943 l 2
 155 943 152 946 154 953 c 2
 179 1040 l 2
 181 1047 184 1050 191 1050 c 2
 685 1050 l 2
 692 1050 694 1047 692 1040 c 2
 667 953 l 2
 665 946 663 943 656 943 c 2
329 1188 m 258
 376.785756504 1395.02674226 523 1529 804 1421 c 0
 812.452319527 1417.75142168 816.365165141 1412.71581576 814 1407 c 6
 778 1320 l 6
 775.098175761 1312.98725809 767.688510389 1307.22370126 756 1313 c 0
 584 1398 533.827148438 1293.02636719 505 1168 c 258
 155 -350 l 2
 153 -357 150 -360 143 -360 c 2
 -18 -360 l 2
 -25 -360 -28 -357 -26 -350 c 2
 329 1188 l 258
EndSplineSet
EndChar

StartChar: g
Encoding: 103 103 44
Width: 968
VWidth: 1872
Flags: HMW
AnchorPoint: "top" 549 1100 basechar 0
LayerCount: 2
Fore
SplineSet
1095 1250 m 0
 1038 1058 806 972 756 972 c 1
 734 1002 l 1
 793 1002 835 1061 908 1251 c 0
 910 1257 914 1260 921 1260 c 2
 1088 1260 l 2
 1095 1260 1097 1257 1095 1250 c 0
560 252 m 2
 774 233 887 125 845 -59 c 0
 798 -262 584 -360 350 -360 c 2
 203 -360 l 2
 -20 -360 -175 -243 -132 -57 c 0
 -98 89 54 167 214 186 c 1
 235 147 l 1
 143 128 64 49 44 -38 c 0
 8 -193 135 -233 289 -233 c 2
 361 -233 l 2
 524 -233 649 -155 676 -39 c 0
 698 57 659 108 499 117 c 2
 287 128 l 2
 111 139 41 206 65 311 c 0
 87 407 180 450 346 450 c 1
 355 410 l 1
 259 410 208 379 199 342 c 0
 185 282 278 276 395 266 c 2
 560 252 l 2
765 697 m 6
 772 729 l 6
 805 873 703 957 566 957 c 0
 423 957 324 905 293 769 c 2
 286 737 l 2
 254 600 341 517 484 517 c 0
 620 517 732 553 765 697 c 6
920 689 m 6
 877 502 706 390 475 390 c 0
 244 390 74 542 117 729 c 2
 128 777 l 2
 171 964 344 1084 575 1084 c 0
 806 1084 974 924 931 737 c 6
 920 689 l 6
EndSplineSet
EndChar

StartChar: h
Encoding: 104 104 45
Width: 1075
VWidth: 1872
Flags: HMW
AnchorPoint: "bottom" 434 0 basechar 0
AnchorPoint: "top" 438 1450 basechar 0
LayerCount: 2
Fore
SplineSet
347 1450 m 2
 513 1450 l 2
 520 1450 522 1447 520 1440 c 2
 190 10 l 2
 188 3 184 0 178 0 c 2
 12 0 l 2
 5 0 2 3 4 10 c 2
 334 1440 l 2
 336 1447 340 1450 347 1450 c 2
334 712 m 1
 384 927 520 1084 721 1084 c 4
 922 1084 1057 965 1012 770 c 2
 836 10 l 2
 834 3 832 0 825 0 c 2
 658 0 l 2
 651 0 648 3 650 10 c 2
 826 770 l 2
 853 887 804 957 672 957 c 0
 512 957 381 838 334 633 c 1
 334 712 l 1
EndSplineSet
EndChar

StartChar: i
Encoding: 105 105 46
Width: 434
VWidth: 1872
Flags: HMW
AnchorPoint: "bottom" 104 0 basechar 0
AnchorPoint: "ogonek" 104 0 basechar 0
LayerCount: 2
Fore
SplineSet
524 1402 m 2
 481 1219 l 2
 479 1212 476 1210 469 1210 c 2
 285 1210 l 2
 278 1210 275 1212 277 1219 c 2
 320 1402 l 2
 322 1409 325 1412 332 1412 c 2
 516 1412 l 2
 523 1412 526 1409 524 1402 c 2
431 1040 m 2
 193 10 l 2
 191 3 188 0 181 0 c 2
 14 0 l 2
 7 0 5 3 7 10 c 2
 245 1040 l 2
 247 1047 249 1050 256 1050 c 2
 423 1050 l 2
 430 1050 433 1047 431 1040 c 2
EndSplineSet
EndChar

StartChar: j
Encoding: 106 106 47
Width: 434
VWidth: 1872
Flags: HMW
LayerCount: 2
Fore
SplineSet
177 -59 m 2
 128 -271 -1 -371 -180 -371 c 0
 -399 -371 -390 -200 -355 -107 c 0
 -353 -102 -350 -100 -343 -100 c 2
 -197 -100 l 2
 -190 -100 -187 -103 -189 -107 c 0
 -225 -201 -224 -244 -165 -244 c 0
 -97 -244 -38 -185 -9 -60 c 2
 245 1040 l 2
 247 1047 250 1050 257 1050 c 2
 423 1050 l 2
 430 1050 433 1047 431 1040 c 2
 177 -59 l 2
524 1402 m 2
 481 1219 l 2
 479 1212 476 1210 469 1210 c 2
 285 1210 l 2
 278 1210 275 1212 277 1219 c 2
 320 1402 l 2
 322 1409 325 1412 332 1412 c 2
 516 1412 l 2
 523 1412 526 1409 524 1402 c 2
EndSplineSet
EndChar

StartChar: k
Encoding: 107 107 48
Width: 970
VWidth: 1872
Flags: HMW
LayerCount: 2
Fore
SplineSet
342 1450 m 6
 508 1450 l 6
 515 1450 517 1447 515 1440 c 6
 185 10 l 6
 183 3 179 0 173 0 c 6
 7 0 l 6
 0 0 -3 3 -1 10 c 6
 329 1440 l 6
 331 1447 335 1450 342 1450 c 6
203 501 m 5
 809 1040 l 6
 818 1048 822 1050 830 1050 c 6
 1045 1050 l 6
 1052 1050 1053 1048 1042 1040 c 6
 272 429 l 5
 203 501 l 5
460 650 m 5
 600 713 l 5
 866 10 l 6
 869 3 868 0 861 0 c 6
 665 0 l 6
 657 0 653 3 651 10 c 6
 460 650 l 5
EndSplineSet
EndChar

StartChar: l
Encoding: 108 108 49
Width: 434
VWidth: 1872
Flags: HMW
LayerCount: 2
Fore
SplineSet
349 1450 m 2
 516 1450 l 2
 523 1450 525 1447 523 1440 c 2
 193 10 l 2
 191 3 187 0 181 0 c 2
 14 0 l 2
 7 0 5 3 7 10 c 2
 337 1440 l 2
 339 1447 342 1450 349 1450 c 2
EndSplineSet
EndChar

StartChar: m
Encoding: 109 109 50
Width: 1609
VWidth: 1872
Flags: HMW
LayerCount: 2
Fore
SplineSet
885 712 m 1
 935 927 1100 1084 1282 1084 c 4
 1464 1084 1590 965 1545 770 c 2
 1369 10 l 2
 1367 3 1364 0 1357 0 c 2
 1191 0 l 2
 1184 0 1181 3 1183 10 c 2
 1359 770 l 2
 1386 887 1345 957 1233 957 c 0
 1092 957 971 838 924 633 c 1
 885 712 l 1
256 1050 m 2
 413 1050 l 2
 420 1050 423 1047 421 1040 c 2
 379 856 l 1
 382 830 l 1
 192 10 l 2
 190 3 188 0 181 0 c 2
 14 0 l 2
 7 0 4 3 6 10 c 2
 244 1040 l 2
 246 1047 249 1050 256 1050 c 2
316 712 m 1
 366 927 512 1084 694 1084 c 4
 876 1084 1001 965 956 770 c 2
 780 10 l 2
 778 3 776 0 769 0 c 2
 602 0 l 2
 595 0 593 3 595 10 c 2
 771 770 l 2
 798 887 757 957 645 957 c 0
 504 957 383 838 336 633 c 1
 316 712 l 1
EndSplineSet
EndChar

StartChar: n
Encoding: 110 110 51
Width: 1074
VWidth: 1872
Flags: HMW
AnchorPoint: "bottom" 434 0 basechar 0
AnchorPoint: "top" 677 1050 basechar 0
LayerCount: 2
Fore
SplineSet
253 1050 m 2
 410 1050 l 2
 417 1050 420 1047 418 1040 c 2
 372 842 l 1
 376 816 l 1
 190 10 l 2
 188 3 185 0 178 0 c 2
 11 0 l 2
 4 0 1 3 3 10 c 2
 241 1040 l 2
 243 1047 246 1050 253 1050 c 2
313 712 m 1
 363 927 510 1084 711 1084 c 4
 912 1084 1057 965 1012 770 c 2
 836 10 l 2
 834 3 831 0 824 0 c 2
 657 0 l 2
 650 0 648 3 650 10 c 2
 826 770 l 2
 853 887 804 957 672 957 c 0
 512 957 381 838 334 633 c 1
 313 712 l 1
EndSplineSet
EndChar

StartChar: o
Encoding: 111 111 52
Width: 1075
VWidth: 1872
Flags: HMW
AnchorPoint: "top" 647 1050 basechar 0
AnchorPoint: "bottom" 434 0 basechar 0
LayerCount: 2
Fore
SplineSet
68 437 m 2
 109 614 l 2
 174 897 368 1084 638 1084 c 0
 928 1084 1075 897 1010 614 c 2
 969 437 l 2
 904 154 710 -34 440 -34 c 0
 150 -34 3 154 68 437 c 2
252 408 m 2
 209 223 269 93 449 93 c 0
 599 93 728 223 771 408 c 2
 825 643 l 2
 868 828 809 957 629 957 c 0
 479 957 349 828 306 643 c 2
 252 408 l 2
EndSplineSet
EndChar

StartChar: p
Encoding: 112 112 53
Width: 1100
VWidth: 1872
Flags: HMW
LayerCount: 2
Fore
SplineSet
284 644 m 1
 349 927 534 1084 725 1084 c 4
 926 1084 1126 946 1049 614 c 2
 1008 436 l 2
 932.00530496 106.071811779 748 -34 517 -34 c 0
 326 -34 174 123 239 406 c 1
 281 425 l 1
 234 221 337 103 489 103 c 0
 631 103 768 203 815 407 c 2
 869 643 l 2
 916 847 826 947 684 947 c 0
 532 947 374 829 327 625 c 1
 284 644 l 1
-84 -350 m 2
 237 1040 l 2
 239 1047 241 1050 248 1050 c 2
 400 1050 l 2
 407 1050 410 1047 408 1040 c 2
 354 807 l 1
 359 764 l 1
 102 -350 l 2
 100 -357 97 -360 90 -360 c 2
 -77 -360 l 2
 -84 -360 -86 -357 -84 -350 c 2
EndSplineSet
EndChar

StartChar: q
Encoding: 113 113 54
Width: 1100
VWidth: 1872
Flags: HMW
LayerCount: 2
Fore
SplineSet
771 -360 m 2
 604 -360 l 2
 597 -360 595 -357 597 -350 c 2
 881 878 l 1
 1056 1074 l 2
 1063 1082 1068 1084 1075 1084 c 2
 1104 1084 l 2
 1111 1084 1114 1081 1112 1074 c 2
 783 -350 l 2
 781 -357 778 -360 771 -360 c 2
799 406 m 1
 734 123 568 -35 377 -35 c 4
 176 -35 -24 103 53 435 c 2
 95 614 l 2
 167 926 375 1084 576 1084 c 0
 796 1084 949 926 884 644 c 1
 822 625 l 1
 869 830 765 947 614 947 c 0
 472 947 335 847 288 643 c 2
 234 406 l 2
 187 202 277 103 419 103 c 0
 571 103 729 221 776 425 c 1
 799 406 l 1
EndSplineSet
EndChar

StartChar: r
Encoding: 114 114 55
Width: 834
VWidth: 1872
Flags: HMW
AnchorPoint: "top" 577 1050 basechar 0
AnchorPoint: "bottom" 104 0 basechar 0
LayerCount: 2
Fore
SplineSet
348 713 m 1
 332 770 l 1
 369 930 520 1084 682 1084 c 0
 891 1084 911 863 753 670 c 0
 749.588734564 665.833074499 748 663 741 663 c 2
 590 663 l 6
 583 663 579.615234375 666.63671875 582 670 c 4
 755 914 692 957 613 957 c 0
 515 957 381 858 348 713 c 1
249 1050 m 2
 401 1050 l 2
 408 1050 410 1047 408 1040 c 2
 363 844 l 1
 376 835 l 1
 185 10 l 2
 183 3 180 0 173 0 c 2
 7 0 l 2
 0 0 -3 3 -1 10 c 2
 237 1040 l 2
 239 1047 242 1050 249 1050 c 2
EndSplineSet
EndChar

StartChar: s
Encoding: 115 115 56
Width: 968
VWidth: 1872
Flags: HMW
AnchorPoint: "top" 587 1050 basechar 0
AnchorPoint: "bottom" 364 0 basechar 0
LayerCount: 2
Fore
SplineSet
43 380 m 2
 190 380 l 2
 197 380 203.540039062 377.743164062 200 371 c 0
 179 331 166 281.05859375 166 247 c 0
 166 148 224 93 360 93 c 4
 530 93 643 156 669 269 c 0
 725 512 80 407 169 794 c 0
 215 992 429 1084 609 1084 c 0
 827 1084 928 972 928 853 c 0
 928 821.743164062 921 770 898 718 c 0
 894.919373971 711.03510637 894 709 887 709 c 2
 751 709 l 2
 744 709 739.80859375 712.084960938 743 719 c 0
 761 758 765 778.265625 765 812 c 0
 765 882 723 952 597 952 c 0
 474 952 362 895 339 797 c 0
 279 539 939 653 848 258 c 0
 798 40 596 -35 340 -35 c 0
 113 -35 -6 65 -6 228 c 0
 -6 283.036132812 9 327 32 372 c 0
 35.4660225693 378.781348505 36 380 43 380 c 2
EndSplineSet
EndChar

StartChar: t
Encoding: 116 116 57
Width: 608
VWidth: 1872
Flags: HMW
AnchorPoint: "bottom" 234 0 basechar 0
LayerCount: 2
Fore
SplineSet
649 933 m 2
 135 933 l 2
 128 933 126 936 128 943 c 2
 151 1040 l 2
 153 1047 155 1050 162 1050 c 2
 676 1050 l 2
 683 1050 686 1047 684 1040 c 2
 661 943 l 2
 659 936 656 933 649 933 c 2
475 118 m 2
 450 10 l 2
 448 3 446 0 439 -1 c 0
 151 -37 46.1460674157 42.9662921348 93 246 c 6
 357 1390 l 6
 358.634831461 1397.08426966 362 1400 369 1400 c 2
 521 1400 l 2
 528 1400 530 1397 528 1390 c 2
 268 266 l 2
 239 142 291 88 469 126 c 0
 474.948716274 127.269950665 477 125 475 118 c 2
EndSplineSet
EndChar

StartChar: u
Encoding: 117 117 58
Width: 1074
VWidth: 1872
Flags: HMW
AnchorPoint: "ogonek" 750 0 basechar 0
AnchorPoint: "bottom" 414 0 basechar 0
AnchorPoint: "top" 657 1050 basechar 0
LayerCount: 2
Fore
SplineSet
821 0 m 2
 669 0 l 2
 662 0 659 3 661 10 c 2
 703 189 l 1
 701 244 l 1
 885 1040 l 2
 887 1047 889 1050 896 1050 c 2
 1063 1050 l 2
 1070 1050 1073 1047 1071 1040 c 2
 833 10 l 2
 831 3 828 0 821 0 c 2
761 338 m 1
 711 123 525 -34 324 -34 c 0
 123 -34 18 85 63 280 c 2
 238 1040 l 2
 240 1047 243 1050 250 1050 c 2
 417 1050 l 2
 424 1050 426 1047 424 1040 c 2
 249 280 l 2
 223 163 271 93 403 93 c 0
 563 93 694 212 741 417 c 1
 761 338 l 1
EndSplineSet
EndChar

StartChar: v
Encoding: 118 118 59
Width: 969
VWidth: 1872
Flags: HMW
LayerCount: 2
Fore
SplineSet
397 162 m 5
 886 1040 l 6
 890 1047 895 1050 902 1050 c 6
 1064 1050 l 2
 1071 1050 1073 1047 1068 1040 c 2
 461 10 l 2
 456 2 452 0 445 0 c 2
 274 0 l 2
 267 0 264 3 263 10 c 2
 142 1040 l 2
 142 1047 142 1050 149 1050 c 2
 311 1050 l 6
 318 1050 322 1047 322 1040 c 6
 397 162 l 5
EndSplineSet
EndChar

StartChar: w
Encoding: 119 119 60
Width: 1401
VWidth: 1872
Flags: HMW
LayerCount: 2
Fore
SplineSet
923 211 m 5
 1315 1040 l 6
 1319 1047 1323 1050 1329 1050 c 6
 1480 1050 l 2
 1487 1050 1488 1046 1485 1040 c 2
 963 10 l 2
 959 3 955 0 948 0 c 2
 805 0 l 2
 798 0 795 2 795 10 c 2
 767 796 l 1
 381 10 l 2
 377 2 373 0 366 0 c 2
 214 0 l 2
 207 0 203 2 203 10 c 2
 157 1040 l 2
 157 1047 159 1050 166 1050 c 2
 317 1050 l 6
 324 1050 328 1047 328 1040 c 6
 332 211 l 5
 742 1040 l 6
 746 1047 749 1050 756 1050 c 6
 889 1050 l 6
 896 1050 900 1047 900 1040 c 6
 923 211 l 5
EndSplineSet
EndChar

StartChar: x
Encoding: 120 120 61
Width: 966
VWidth: 1872
Flags: HMW
LayerCount: 2
Fore
SplineSet
94 0 m 2
 -72 0 l 2
 -79 0 -80 3 -73 10 c 2
 389 555 l 1
 179 1040 l 2
 176 1048 177 1050 184 1050 c 2
 360 1050 l 2
 367 1050 371 1048 374 1040 c 2
 531 642 l 1
 838 1040 l 2
 845 1048 849 1050 856 1050 c 2
 1022 1050 l 2
 1029 1050 1030 1047 1023 1040 c 2
 590 533 l 1
 799 10 l 2
 802 3 801 0 794 0 c 2
 628 0 l 2
 620 0 617 2 614 10 c 2
 466 436 l 5
 112 10 l 2
 106 3 101 0 94 0 c 2
EndSplineSet
EndChar

StartChar: y
Encoding: 121 121 62
Width: 969
VWidth: 1872
Flags: HMW
AnchorPoint: "top" 607 1050 basechar 0
LayerCount: 2
Fore
SplineSet
389 211 m 5
 874 1040 l 2
 878 1047 882 1050 889 1050 c 2
 1043 1050 l 2
 1050 1050 1050 1046 1047 1040 c 2
 369 -109 l 2
 253.365474165 -304.964705287 147 -371 0 -371 c 0
 -219 -371 -220 -210 -145 -107 c 0
 -141.830085915 -102.646651324 -140 -100 -133 -100 c 2
 13 -100 l 2
 20 -100 23.9026346452 -103.597837141 21 -107 c 0
 -44.6312517858 -183.92604633 -47.3876953125 -253.107421875 17.953125 -253.107421875 c 0
 90 -253.107421875 151.873046875 -193.897460938 252 -12 c 1
 159 1040 l 2
 158 1046 160 1050 167 1050 c 2
 311 1050 l 6
 318 1050 320 1046 321 1040 c 6
 389 211 l 5
EndSplineSet
EndChar

StartChar: z
Encoding: 122 122 63
Width: 967
VWidth: 1872
Flags: HMW
AnchorPoint: "top" 637 1050 basechar 0
LayerCount: 2
Fore
SplineSet
-62 10 m 2
 733 903 l 1
 216 903 l 2
 208 903 207 905 209 913 c 2
 238 1040 l 2
 240 1048 242 1050 250 1050 c 2
 1062 1050 l 2
 1069 1050 1070 1048 1063 1040 c 2
 270 147 l 1
 835 147 l 2
 842 147 845 144 843 137 c 2
 813 10 l 2
 811 3 808 0 801 0 c 2
 -61 0 l 2
 -68 0 -70 2 -62 10 c 2
EndSplineSet
EndChar

StartChar: comma
Encoding: 44 44 65
Width: 540
VWidth: 1920
Flags: HMW
LayerCount: 2
Fore
SplineSet
7 -210 m 6
 -23 -210 l 6
 -30 -210 -32 -208 -26 -200 c 6
 125 0 l 261
 55 0 l 6
 46 0 45 1 47 10 c 6
 91 200 l 6
 93 207 96 210 103 210 c 6
 293 210 l 6
 300 210 303 207 301 200 c 6
 260 20 l 6
 258 13 255 9 246 0 c 6
 28 -200 l 6
 19 -208 15 -210 7 -210 c 6
EndSplineSet
EndChar

StartChar: exclam
Encoding: 33 33 67
Width: 540
VWidth: 1920
Flags: HMW
LayerCount: 2
Fore
SplineSet
245 0 m 6
 55 0 l 6
 48 0 45 3 47 10 c 6
 91 200 l 6
 93 207 96 210 103 210 c 6
 293 210 l 6
 300 210 303 207 301 200 c 6
 257 10 l 6
 255 3 252 0 245 0 c 6
274 950 m 6
 387 1440 l 6
 389 1447 393 1450 400 1450 c 6
 570 1450 l 6
 577 1450 579 1447 577 1440 c 6
 464 950 l 6
 462 943 462 937 459 930 c 6
 288 440 l 6
 285 433 281 430 274 430 c 6
 224 430 l 6
 217 430 215 433 216 440 c 6
 271 930 l 6
 272 937 272 943 274 950 c 6
EndSplineSet
EndChar

StartChar: quotesingle
Encoding: 39 39 70
Width: 370
VWidth: 1920
Flags: HMW
LayerCount: 2
Fore
SplineSet
305 930 m 6
 255 930 l 6
 248 930 244 933 245 940 c 6
 261 1210 l 6
 262 1217 262 1223 264 1230 c 6
 306 1410 l 6
 308 1417 311 1420 318 1420 c 6
 468 1420 l 6
 475 1420 478 1417 476 1410 c 6
 434 1230 l 6
 432 1223 430 1217 427 1210 c 6
 319 940 l 6
 316 933 312 930 305 930 c 6
EndSplineSet
EndChar

StartChar: question
Encoding: 63 63 71
Width: 1080
VWidth: 1920
Flags: HMW
LayerCount: 2
Fore
SplineSet
535 0 m 2
 345 0 l 2
 338 0 335 3 337 10 c 2
 381 200 l 2
 383 207 386 210 393 210 c 2
 583 210 l 2
 590 210 593 207 591 200 c 2
 547 10 l 2
 545 3 542 0 535 0 c 2
572 400 m 2
 482 400 l 2
 475 400 473 403 473 409 c 0
 504 731 858 748 921 1023 c 258
 932 1068 l 262
 969 1228 924 1335 767 1335 c 260
 597 1335 488 1225 448 1052 c 262
 427 962 l 2
 425 955 422 952 415 952 c 2
 255 952 l 2
 248 952 245 955 247 962 c 2
 268 1052 l 262
 329 1316 535 1485 812 1485 c 260
 1059 1485 1193 1333 1133 1073 c 262
 1127 1048 l 258
 1055 735 714 713 586 408 c 0
 584 403 579 400 572 400 c 2
EndSplineSet
EndChar

StartChar: parenleft
Encoding: 40 40 72
Width: 535
VWidth: 2048
Flags: HMW
LayerCount: 2
Fore
SplineSet
143 838 m 258
 237 1243 450 1561 743 1618 c 0
 751 1620 754 1617 752 1610 c 2
 736 1540 l 2
 734 1533 731 1529 723 1526 c 0
 570 1465 416 1259 323 858 c 258
 216 392 l 258
 123 -9 182 -215 307 -276 c 0
 313 -279 315 -283 313 -290 c 2
 297 -360 l 2
 295 -367 292 -370 284 -368 c 0
 17 -311 -49 7 45 412 c 258
 143 838 l 258
EndSplineSet
EndChar

StartChar: parenright
Encoding: 41 41 73
Width: 535
VWidth: 2048
Flags: HMW
LayerCount: 2
Fore
SplineSet
440 412 m 258
 346 7 134 -311 -159 -368 c 0
 -167 -370 -170 -367 -168 -360 c 2
 -152 -290 l 2
 -150 -283 -148 -279 -140 -276 c 0
 13 -215 167 -9 260 392 c 258
 368 858 l 258
 461 1259 401 1465 276 1526 c 0
 270 1529 269 1533 271 1540 c 2
 287 1610 l 2
 289 1617 292 1620 300 1618 c 0
 567 1561 632 1243 538 838 c 258
 440 412 l 258
EndSplineSet
EndChar

StartChar: asterisk
Encoding: 42 42 74
Width: 914
VWidth: 2048
Flags: HMW
LayerCount: 2
Fore
SplineSet
576 986 m 257
 569 1053 l 257
 923 1208 l 2
 930 1211 936 1213 943 1214 c 2
 995 1222 l 2
 1002 1223 1006 1221 1006 1214 c 2
 1018 1091 l 2
 1018 1084 1016 1080 1009 1077 c 2
 958 1054 l 2
 951 1051 945 1049 938 1048 c 2
 576 986 l 257
539 1000 m 257
 605 1041 l 257
 792 787 l 2
 796 782 798 776 800 770 c 2
 812 725 l 2
 814 719 813 715 806 711 c 2
 683 634 l 2
 676 630 673 631 669 636 c 2
 641 672 l 2
 637 677 635 682 633 688 c 2
 539 1000 l 257
549 1041 m 257
 597 1000 l 257
 359 688 l 2
 355 682 349 677 343 672 c 2
 299 636 l 2
 293 631 288 630 283 634 c 2
 196 711 l 2
 191 715 192 719 196 725 c 2
 230 770 l 2
 234 776 240 782 246 787 c 2
 549 1041 l 257
591 1053 m 257
 554 986 l 257
 220 1048 l 2
 213 1049 207 1051 202 1054 c 2
 163 1077 l 2
 158 1080 156 1084 160 1091 c 2
 228 1214 l 2
 232 1221 236 1223 243 1222 c 2
 291 1214 l 2
 298 1213 304 1211 309 1208 c 2
 591 1053 l 257
607 1020 m 257
 537 1020 l 257
 569 1370 l 2
 570 1377 571 1383 574 1390 c 2
 593 1440 l 2
 596 1447 600 1450 607 1450 c 2
 737 1450 l 2
 744 1450 746 1447 745 1440 c 2
 742 1390 l 2
 741 1383 740 1377 737 1370 c 2
 607 1020 l 257
EndSplineSet
EndChar

StartChar: at
Encoding: 64 64 75
Width: 1990
VWidth: 1920
Flags: HMW
LayerCount: 2
Fore
SplineSet
1204 472 m 257
 1137 182 1027 40 830 40 c 256
 643 40 482 157 560 497 c 258
 567 528 l 258
 641 848 821 985 1008 985 c 260
 1185 985 1300 843 1233 553 c 257
 1178 533 l 257
 1226 743 1173 845 1036 845 c 256
 909 845 811 763 763 553 c 258
 744 472 l 258
 696 262 756 180 883 180 c 256
 1020 180 1121 282 1169 492 c 257
 1204 472 l 257
1153 -255 m 0
 1071 -315 942 -360 782 -360 c 256
 225 -360 -17 13 94 493 c 258
 115 583 l 258
 233 1093 669 1435 1206 1435 c 256
 1813 1435 2006 1024 1916 633 c 258
 1895 543 l 258
 1812 183 1586 40 1379 40 c 256
 1172 40 1098 185 1149 405 c 258
 1234 775 l 257
 1413 975 l 2
 1418 980 1425 985 1432 985 c 2
 1462 985 l 2
 1469 985 1472 982 1470 975 c 2
 1348 445 l 258
 1303 251 1325 180 1432 180 c 256
 1529 180 1660 303 1715 543 c 258
 1736 633 l 258
 1814 973 1651 1295 1204 1295 c 256
 797 1295 404 1013 307 593 c 258
 282 483 l 258
 194 103 357 -220 794 -220 c 256
 906 -220 1027 -181 1112 -124 c 0
 1120 -118 1124 -120 1125 -127 c 2
 1161 -237 l 2
 1162 -245 1161 -249 1153 -255 c 0
EndSplineSet
EndChar

StartChar: dollar
Encoding: 36 36 76
Width: 1110
VWidth: 1920
Flags: HMW
LayerCount: 2
Fore
SplineSet
77 508 m 2
 233 508 l 2
 236 508 243 507 241 500 c 2
 228 440 l 2
 181 236 257 115 467 115 c 256
 675 115 778 187 822 378 c 256
 849 495 790 560 560 619 c 256
 305 685 178 845 228 1063 c 256
 283 1303 434 1435 721 1435 c 256
 1015 1435 1140 1256 1090 1041 c 2
 1074 971 l 2
 1072 964 1067 963 1062 963 c 2
 912 963 l 2
 907 963 902 964 904 971 c 2
 918 1031 l 2
 949 1166 904 1295 709 1295 c 256
 532 1295 448 1203 413 1053 c 256
 378 902 462 828 621 787 c 256
 932 707 1056 559 1010 361 c 260
 951 104 801 -35 452 -35 c 256
 144 -35 -13 153 41 389 c 2
 66 499 l 2
 68 506 74 508 77 508 c 2
767 1590 m 2
 827 1590 l 2
 834 1590 837 1587 835 1580 c 2
 428 -180 l 2
 426 -187 423 -190 416 -190 c 2
 356 -190 l 2
 349 -190 346 -187 348 -180 c 2
 755 1580 l 2
 757 1587 760 1590 767 1590 c 2
EndSplineSet
EndChar

StartChar: numbersign
Encoding: 35 35 77
Width: 1300
VWidth: 1920
Flags: HMW
LayerCount: 2
Fore
SplineSet
85 540 m 2
 1145 540 l 2
 1152 540 1154 537 1152 530 c 2
 1132 440 l 2
 1130 433 1127 430 1119 430 c 2
 59 430 l 2
 52 430 50 433 52 440 c 2
 72 530 l 2
 74 537 78 540 85 540 c 2
282 1050 m 2
 1342 1050 l 6
 1349 1050 1352 1047 1350 1040 c 2
 1329 950 l 2
 1327 943 1324 940 1317 940 c 2
 257 940 l 2
 250 940 247 943 249 950 c 2
 270 1040 l 2
 272 1047 275 1050 282 1050 c 2
1153 1400 m 2
 1283 1400 l 2
 1293 1400 1293 1397 1289 1390 c 2
 644 10 l 2
 640 3 640 0 630 0 c 2
 500 0 l 2
 490 0 490 3 494 10 c 2
 1139 1390 l 2
 1143 1397 1143 1400 1153 1400 c 2
733 1400 m 2
 863 1400 l 2
 870 1400 873 1397 869 1390 c 2
 224 10 l 2
 220 3 217 0 210 0 c 2
 80 0 l 2
 73 0 70 3 74 10 c 2
 719 1390 l 2
 723 1397 726 1400 733 1400 c 2
EndSplineSet
EndChar

StartChar: slash
Encoding: 47 47 78
Width: 840
VWidth: 2048
Flags: HMW
LayerCount: 2
Fore
SplineSet
997 1390 m 2
 48 -90 l 2
 42 -99 39 -100 32 -100 c 2
 -118 -100 l 2
 -125 -100 -128 -99 -122 -90 c 2
 827 1390 l 6
 833 1399 837 1400 843 1400 c 6
 993 1400 l 2
 1000 1400 1003 1399 997 1390 c 2
EndSplineSet
EndChar

StartChar: percent
Encoding: 37 37 79
Width: 1755
VWidth: 2048
Flags: HMW
LayerCount: 2
Fore
SplineSet
230 1083 m 258
 238 1118 l 258
 282 1308 469 1435 646 1435 c 256
 823 1435 962 1308 918 1118 c 258
 910 1083 l 258
 866 893 669 765 492 765 c 256
 315 765 186 893 230 1083 c 258
400 1063 m 258
 375 953 435 895 522 895 c 256
 609 895 705 953 730 1063 c 258
 748 1138 l 258
 773 1248 703 1305 616 1305 c 256
 529 1305 443 1248 418 1138 c 258
 400 1063 l 258
920 283 m 258
 928 318 l 258
 972 508 1160 635 1337 635 c 256
 1514 635 1652 508 1608 318 c 258
 1600 283 l 258
 1556 93 1359 -35 1182 -35 c 256
 1005 -35 876 93 920 283 c 258
1091 263 m 258
 1066 153 1125 95 1212 95 c 256
 1299 95 1396 153 1421 263 c 258
 1438 338 l 258
 1463 448 1394 505 1307 505 c 256
 1220 505 1133 448 1108 338 c 258
 1091 263 l 258
1580 1390 m 2
 418 10 l 2
 412 3 407 0 400 0 c 2
 260 0 l 2
 253 0 252 3 258 10 c 2
 1420 1390 l 2
 1426 1397 1431 1400 1438 1400 c 2
 1578 1400 l 2
 1585 1400 1586 1397 1580 1390 c 2
EndSplineSet
EndChar

StartChar: hyphen
Encoding: 45 45 80
Width: 570
VWidth: 1920
Flags: HMW
LayerCount: 2
Fore
SplineSet
46 545 m 14
 77 680 l 22
 79 687 82 690 89 690 c 14
 559 690 l 22
 566 690 569 687 567 680 c 14
 536 545 l 22
 534 538 531 535 524 535 c 14
 54 535 l 22
 47 535 44 538 46 545 c 14
EndSplineSet
EndChar

StartChar: underscore
Encoding: 95 95 81
Width: 900
VWidth: 1920
Flags: HMW
LayerCount: 2
Fore
SplineSet
-153 -145 m 10
 -122 -10 l 18
 -120 -3 -117 0 -110 0 c 10
 770 0 l 22
 777 0 780 -3 778 -10 c 14
 747 -145 l 22
 745 -152 741 -155 734 -155 c 14
 -146 -155 l 18
 -153 -155 -155 -152 -153 -145 c 10
EndSplineSet
EndChar

StartChar: plus
Encoding: 43 43 82
Width: 1040
VWidth: 1920
Flags: HMW
LayerCount: 2
Fore
SplineSet
69 625 m 14
 100 760 l 22
 102 767 106 770 113 770 c 14
 1043 770 l 22
 1050 770 1052 767 1050 760 c 14
 1019 625 l 22
 1017 618 1014 615 1007 615 c 14
 77 615 l 22
 70 615 67 618 69 625 c 14
610 1190 m 14
 740 1190 l 22
 747 1190 749 1187 747 1180 c 14
 517 180 l 22
 515 173 511 170 504 170 c 14
 374 170 l 22
 367 170 365 173 367 180 c 14
 597 1180 l 22
 599 1187 603 1190 610 1190 c 14
EndSplineSet
EndChar

StartChar: equal
Encoding: 61 61 83
Width: 1180
VWidth: 1920
Flags: HMW
LayerCount: 2
Fore
SplineSet
87 245 m 14
 118 380 l 22
 120 387 123 390 130 390 c 14
 990 390 l 22
 997 390 1000 387 998 380 c 14
 967 245 l 22
 965 238 961 235 954 235 c 14
 94 235 l 22
 87 235 85 238 87 245 c 14
172 615 m 14
 203 750 l 22
 205 757 208 760 215 760 c 14
 1075 760 l 22
 1082 760 1085 757 1083 750 c 14
 1052 615 l 22
 1050 608 1047 605 1040 605 c 14
 180 605 l 22
 173 605 170 608 172 615 c 14
EndSplineSet
EndChar

StartChar: less
Encoding: 60 60 84
Width: 1010
VWidth: 1920
Flags: HMW
LayerCount: 2
Fore
SplineSet
750 86 m 6
 86 544 l 6
 80 548 77 553 79 560 c 6
 98 640 l 6
 100 647 103 652 111 656 c 6
 987 1114 l 6
 995 1118 998 1117 996 1110 c 6
 957 940 l 6
 955 933 952 928 943 924 c 6
 275 590 l 261
 789 256 l 6
 796 252 797 247 795 240 c 6
 761 90 l 6
 759 83 756 82 750 86 c 6
EndSplineSet
EndChar

StartChar: greater
Encoding: 62 62 85
Width: 1010
VWidth: 1920
Flags: HMW
LayerCount: 2
Fore
SplineSet
297 1114 m 6
 961 656 l 6
 967 652 970 647 968 640 c 6
 949 560 l 6
 947 553 944 548 936 544 c 6
 60 86 l 6
 52 82 49 83 51 90 c 6
 90 260 l 6
 92 267 95 272 104 276 c 6
 772 610 l 261
 258 944 l 6
 251 948 250 953 252 960 c 6
 286 1110 l 6
 288 1117 291 1118 297 1114 c 6
EndSplineSet
EndChar

StartChar: backslash
Encoding: 92 92 86
Width: 840
VWidth: 2048
Flags: HMW
LayerCount: 2
Fore
SplineSet
680 -90 m 2
 682 -99 679 -100 672 -100 c 2
 542 -100 l 2
 536 -100 532 -99 530 -90 c 2
 245 1390 l 2
 243 1399 246 1400 253 1400 c 2
 383 1400 l 6
 390 1400 393 1399 395 1390 c 6
 680 -90 l 2
EndSplineSet
EndChar

StartChar: bracketleft
Encoding: 91 91 87
Width: 550
VWidth: 1920
Flags: HMW
LayerCount: 2
Fore
SplineSet
475 1450 m 261
 92 -210 l 261
 322 -210 l 6
 329 -210 331 -213 329 -220 c 6
 299 -350 l 6
 297 -357 294 -360 287 -360 c 6
 -123 -360 l 6
 -130 -360 -133 -357 -131 -350 c 6
 317 1590 l 6
 319 1597 322 1600 329 1600 c 6
 739 1600 l 6
 746 1600 749 1597 747 1590 c 6
 717 1460 l 6
 715 1453 712 1450 705 1450 c 6
 475 1450 l 261
EndSplineSet
EndChar

StartChar: braceleft
Encoding: 123 123 88
Width: 575
VWidth: 2048
Flags: HMW
LayerCount: 2
Fore
SplineSet
330 1278 m 262
 382 1505 446 1598 714 1600 c 4
 721 1600 724 1597 722 1590 c 6
 706 1520 l 6
 704 1513 701 1510 693 1510 c 4
 593 1506 545 1452 505 1278 c 262
 431 956 l 262
 388 771 336 668 169 620 c 261
 314 572 319 469 276 284 c 262
 201 -38 l 262
 161 -211 184 -264 280 -270 c 4
 290 -271 292 -273 290 -280 c 6
 274 -350 l 6
 272 -357 269 -360 260 -360 c 4
 -5 -356 -26 -265 26 -38 c 262
 101 284 l 262
 141 457 119 521 29 552 c 4
 21 555 19 559 21 566 c 6
 46 674 l 6
 48 681 52 685 59 687 c 4
 168 720 216 782 256 956 c 262
 330 1278 l 262
EndSplineSet
EndChar

StartChar: bracketright
Encoding: 93 93 89
Width: 550
VWidth: 1920
Flags: HMW
LayerCount: 2
Fore
SplineSet
122 -210 m 257
 505 1450 l 257
 275 1450 l 2
 268 1450 265 1453 267 1460 c 2
 297 1590 l 2
 299 1597 302 1600 309 1600 c 2
 719 1600 l 2
 726 1600 729 1597 727 1590 c 2
 279 -350 l 2
 277 -357 274 -360 267 -360 c 2
 -143 -360 l 2
 -150 -360 -153 -357 -151 -350 c 2
 -121 -220 l 2
 -119 -213 -115 -210 -108 -210 c 2
 122 -210 l 257
EndSplineSet
EndChar

StartChar: braceright
Encoding: 125 125 90
Width: 575
VWidth: 2048
Flags: HMW
LayerCount: 2
Fore
SplineSet
291 -38 m 258
 239 -265 175 -358 -93 -360 c 0
 -100 -360 -103 -357 -101 -350 c 2
 -85 -280 l 2
 -83 -273 -79 -270 -71 -270 c 0
 29 -266 76 -212 116 -38 c 258
 191 284 l 258
 234 469 285 572 452 620 c 257
 307 668 303 771 346 956 c 258
 420 1278 l 258
 460 1451 438 1504 342 1510 c 0
 332 1511 329 1513 331 1520 c 2
 347 1590 l 2
 349 1597 352 1600 361 1600 c 0
 626 1596 647 1505 595 1278 c 258
 521 956 l 258
 481 783 502 719 592 688 c 0
 600 685 603 681 601 674 c 2
 576 566 l 2
 574 559 570 555 563 553 c 0
 454 520 406 458 366 284 c 258
 291 -38 l 258
EndSplineSet
EndChar

StartChar: bar
Encoding: 124 124 91
Width: 415
VWidth: 1920
Flags: HMW
LayerCount: 2
Fore
SplineSet
387 1600 m 10
 527 1600 l 18
 534 1600 537 1597 535 1590 c 10
 87 -350 l 18
 85 -357 82 -360 75 -360 c 10
 -65 -360 l 18
 -72 -360 -75 -357 -73 -350 c 10
 375 1590 l 18
 377 1597 380 1600 387 1600 c 10
EndSplineSet
EndChar

StartChar: asciitilde
Encoding: 126 126 92
Width: 1330
VWidth: 2048
Flags: HMW
LayerCount: 2
Fore
SplineSet
454 659 m 256
 362 659 279 590 243 447 c 0
 242 441 238 438 231 438 c 2
 91 438 l 2
 84 438 82 441 83 447 c 0
 135 655 288 809 459 809 c 260
 698 809 764 552 916 552 c 256
 1008 552 1091 621 1127 763 c 0
 1129 770 1132 773 1139 773 c 2
 1278 773 l 2
 1285 773 1288 770 1286 763 c 0
 1234 555 1082 402 912 402 c 256
 673 402 606 659 454 659 c 256
EndSplineSet
EndChar

StartChar: asciicircum
Encoding: 94 94 93
Width: 820
VWidth: 1920
Flags: HMW
LayerCount: 2
Fore
SplineSet
565 1191 m 257
 285 740 l 2
 282 734 276 730 269 730 c 2
 119 730 l 2
 112 730 111 734 115 740 c 2
 537 1390 l 2
 543 1399 546 1400 553 1400 c 2
 673 1400 l 2
 680 1400 683 1399 685 1390 c 2
 807 740 l 2
 809 734 811 730 799 730 c 2
 649 730 l 2
 639 730 638 734 637 740 c 2
 565 1191 l 257
EndSplineSet
EndChar

StartChar: figuredash
Encoding: 8210 8210 108
Width: 1150
VWidth: 2048
Flags: HMW
LayerCount: 2
Fore
SplineSet
46 545 m 10
 77 680 l 18
 79 687 82 690 89 690 c 10
 1139 690 l 18
 1146 690 1149 687 1147 680 c 10
 1116 545 l 18
 1114 538 1111 535 1104 535 c 10
 54 535 l 18
 47 535 44 538 46 545 c 10
EndSplineSet
EndChar

StartChar: endash
Encoding: 8211 8211 109
Width: 1100
VWidth: 2048
Flags: HMW
LayerCount: 2
Fore
SplineSet
46 545 m 10
 77 680 l 18
 79 687 82 690 89 690 c 10
 1089 690 l 18
 1096 690 1099 687 1097 680 c 10
 1066 545 l 18
 1064 538 1061 535 1054 535 c 10
 54 535 l 18
 47 535 44 538 46 545 c 10
EndSplineSet
EndChar

StartChar: emdash
Encoding: 8212 8212 110
Width: 2200
VWidth: 2048
Flags: HMW
LayerCount: 2
Fore
SplineSet
46 545 m 10
 77 680 l 18
 79 687 82 690 89 690 c 10
 2189 690 l 18
 2196 690 2199 687 2197 680 c 10
 2166 545 l 18
 2164 538 2161 535 2154 535 c 10
 54 535 l 18
 47 535 44 538 46 545 c 10
EndSplineSet
EndChar

StartChar: uni2015
Encoding: 8213 8213 111
Width: 2360
VWidth: 2048
Flags: HMW
LayerCount: 2
Fore
SplineSet
46 545 m 10
 77 680 l 18
 79 687 82 690 89 690 c 10
 2349 690 l 18
 2356 690 2359 687 2357 680 c 10
 2326 545 l 18
 2324 538 2321 535 2314 535 c 10
 54 535 l 18
 47 535 44 538 46 545 c 10
EndSplineSet
EndChar

StartChar: quoteleft
Encoding: 8216 8216 114
Width: 540
VWidth: 1920
Flags: HMW
LayerCount: 2
Fore
SplineSet
582 1460 m 6
 612 1460 l 6
 619 1460 621 1458 615 1450 c 6
 464 1250 l 261
 534 1250 l 6
 543 1250 543 1249 541 1240 c 6
 497 1050 l 6
 495 1043 492 1040 485 1040 c 6
 295 1040 l 6
 288 1040 285 1043 287 1050 c 6
 329 1230 l 6
 331 1237 334 1241 343 1250 c 6
 561 1450 l 6
 570 1458 574 1460 582 1460 c 6
EndSplineSet
EndChar

StartChar: quotereversed
Encoding: 8219 8219 117
Width: 540
VWidth: 1920
Flags: HMW
LayerCount: 2
Fore
SplineSet
476 1000 m 6
 468 1000 464 1002 459 1010 c 6
 333 1210 l 6
 328 1219 327 1223 329 1230 c 6
 371 1410 l 6
 373 1417 376 1420 383 1420 c 6
 573 1420 l 6
 580 1420 583 1417 581 1410 c 6
 537 1220 l 6
 535 1211 533 1210 524 1210 c 6
 454 1210 l 261
 513 1010 l 6
 515 1002 513 1000 506 1000 c 6
 476 1000 l 6
EndSplineSet
EndChar

StartChar: bullet
Encoding: 8226 8226 120
Width: 690
VWidth: 2048
Flags: HMW
LayerCount: 2
Fore
SplineSet
200 718 m 262
 200 773 l 262
 200 893 293 950 390 950 c 260
 487 950 590 893 590 773 c 262
 590 718 l 262
 590 598 487 540 390 540 c 260
 293 540 200 598 200 718 c 262
EndSplineSet
EndChar

StartChar: dagger
Encoding: 8224 8224 124
Width: 1130
VWidth: 1920
Flags: HMW
LayerCount: 2
Fore
SplineSet
159 905 m 14
 190 1040 l 22
 192 1047 195 1050 202 1050 c 14
 1172 1050 l 22
 1179 1050 1182 1047 1180 1040 c 14
 1149 905 l 22
 1147 898 1144 895 1137 895 c 14
 167 895 l 22
 160 895 157 898 159 905 c 14
683 1400 m 14
 853 1400 l 22
 860 1400 863 1397 861 1390 c 14
 542 10 l 22
 540 3 537 0 530 0 c 14
 360 0 l 22
 353 0 350 3 352 10 c 14
 671 1390 l 22
 673 1397 676 1400 683 1400 c 14
EndSplineSet
EndChar

StartChar: daggerdbl
Encoding: 8225 8225 125
Width: 1130
VWidth: 1920
Flags: HMW
LayerCount: 2
Fore
SplineSet
-48 10 m 14
 -17 145 l 22
 -15 152 -11 155 -4 155 c 14
 966 155 l 22
 973 155 975 152 973 145 c 14
 942 10 l 22
 940 3 937 0 930 0 c 14
 -40 0 l 22
 -47 0 -50 3 -48 10 c 14
159 905 m 10
 190 1040 l 18
 192 1047 195 1050 202 1050 c 10
 1172 1050 l 18
 1179 1050 1182 1047 1180 1040 c 10
 1149 905 l 18
 1147 898 1144 895 1137 895 c 10
 167 895 l 18
 160 895 157 898 159 905 c 10
683 1400 m 10
 853 1400 l 18
 860 1400 863 1397 861 1390 c 10
 459 -350 l 18
 457 -357 454 -360 447 -360 c 10
 277 -360 l 18
 270 -360 267 -357 269 -350 c 10
 671 1390 l 18
 673 1397 676 1400 683 1400 c 10
EndSplineSet
EndChar

StartChar: perthousand
Encoding: 8240 8240 126
Width: 2555
VWidth: 2048
Flags: HMW
LayerCount: 2
Fore
SplineSet
1720 283 m 258
 1728 318 l 258
 1772 508 1960 635 2137 635 c 256
 2314 635 2452 508 2408 318 c 258
 2400 283 l 258
 2356 93 2159 -35 1982 -35 c 256
 1805 -35 1676 93 1720 283 c 258
1891 263 m 258
 1866 153 1925 95 2012 95 c 256
 2099 95 2196 153 2221 263 c 258
 2238 338 l 258
 2263 448 2194 505 2107 505 c 256
 2020 505 1933 448 1908 338 c 258
 1891 263 l 258
230 1083 m 262
 238 1118 l 262
 282 1308 469 1435 646 1435 c 260
 823 1435 962 1308 918 1118 c 262
 910 1083 l 262
 866 893 669 765 492 765 c 260
 315 765 186 893 230 1083 c 262
400 1063 m 262
 375 953 435 895 522 895 c 260
 609 895 705 953 730 1063 c 262
 748 1138 l 262
 773 1248 703 1305 616 1305 c 260
 529 1305 443 1248 418 1138 c 262
 400 1063 l 262
920 283 m 258
 928 318 l 258
 972 508 1160 635 1337 635 c 256
 1514 635 1652 508 1608 318 c 258
 1600 283 l 258
 1556 93 1359 -35 1182 -35 c 256
 1005 -35 876 93 920 283 c 258
1091 263 m 258
 1066 153 1125 95 1212 95 c 256
 1299 95 1396 153 1421 263 c 258
 1438 338 l 258
 1463 448 1394 505 1307 505 c 256
 1220 505 1133 448 1108 338 c 258
 1091 263 l 258
1580 1390 m 2
 418 10 l 2
 412 3 407 0 400 0 c 2
 260 0 l 2
 253 0 252 3 258 10 c 2
 1420 1390 l 2
 1426 1397 1431 1400 1438 1400 c 2
 1578 1400 l 2
 1585 1400 1586 1397 1580 1390 c 2
EndSplineSet
EndChar

StartChar: uni2031
Encoding: 8241 8241 127
Width: 3355
VWidth: 2048
Flags: HMW
LayerCount: 2
Fore
SplineSet
2520 283 m 258
 2528 318 l 258
 2572 508 2760 635 2937 635 c 256
 3114 635 3252 508 3208 318 c 258
 3200 283 l 258
 3156 93 2959 -35 2782 -35 c 256
 2605 -35 2476 93 2520 283 c 258
2691 263 m 258
 2666 153 2725 95 2812 95 c 256
 2899 95 2996 153 3021 263 c 258
 3038 338 l 258
 3063 448 2994 505 2907 505 c 256
 2820 505 2733 448 2708 338 c 258
 2691 263 l 258
1720 283 m 258
 1728 318 l 258
 1772 508 1960 635 2137 635 c 256
 2314 635 2452 508 2408 318 c 258
 2400 283 l 258
 2356 93 2159 -35 1982 -35 c 256
 1805 -35 1676 93 1720 283 c 258
1891 263 m 258
 1866 153 1925 95 2012 95 c 256
 2099 95 2196 153 2221 263 c 258
 2238 338 l 258
 2263 448 2194 505 2107 505 c 256
 2020 505 1933 448 1908 338 c 258
 1891 263 l 258
230 1083 m 262
 238 1118 l 262
 282 1308 469 1435 646 1435 c 260
 823 1435 962 1308 918 1118 c 262
 910 1083 l 262
 866 893 669 765 492 765 c 260
 315 765 186 893 230 1083 c 262
400 1063 m 262
 375 953 435 895 522 895 c 260
 609 895 705 953 730 1063 c 262
 748 1138 l 262
 773 1248 703 1305 616 1305 c 260
 529 1305 443 1248 418 1138 c 262
 400 1063 l 262
920 283 m 258
 928 318 l 258
 972 508 1160 635 1337 635 c 256
 1514 635 1652 508 1608 318 c 258
 1600 283 l 258
 1556 93 1359 -35 1182 -35 c 256
 1005 -35 876 93 920 283 c 258
1091 263 m 258
 1066 153 1125 95 1212 95 c 256
 1299 95 1396 153 1421 263 c 258
 1438 338 l 258
 1463 448 1394 505 1307 505 c 256
 1220 505 1133 448 1108 338 c 258
 1091 263 l 258
1580 1390 m 2
 418 10 l 2
 412 3 407 0 400 0 c 2
 260 0 l 2
 253 0 252 3 258 10 c 2
 1420 1390 l 2
 1426 1397 1431 1400 1438 1400 c 2
 1578 1400 l 2
 1585 1400 1586 1397 1580 1390 c 2
EndSplineSet
EndChar

StartChar: fraction
Encoding: 8260 8260 128
Width: 930
VWidth: 1920
Flags: HMW
LayerCount: 2
Fore
SplineSet
939 1312 m 14
 1028 1252 l 22
 1033 1248 1034 1244 1029 1238 c 14
 101 142 l 22
 96 136 91 134 86 138 c 14
 -3 198 l 22
 -8 202 -9 206 -4 212 c 14
 924 1308 l 22
 929 1314 934 1316 939 1312 c 14
EndSplineSet
EndChar

StartChar: uni2074
Encoding: 8308 8308 129
Width: 676
VWidth: 1920
Flags: HMW
LayerCount: 2
Fore
SplineSet
746 952 m 2
 719 834 l 2
 718 830 715 828 711 828 c 2
 603 828 l 257
 559 636 l 2
 558 632 555 630 551 630 c 2
 409 630 l 2
 405 630 404 632 405 636 c 2
 449 828 l 257
 117 828 l 2
 113 828 112 830 113 834 c 2
 143 964 l 2
 144 968 145 972 149 976 c 2
 650 1464 l 2
 653 1467 657 1470 661 1470 c 2
 745 1470 l 2
 749 1470 751 1468 750 1464 c 2
 633 958 l 257
 741 958 l 2
 745 958 747 956 746 952 c 2
485 958 m 257
 547 1226 l 257
 264 958 l 261
 485 958 l 257
EndSplineSet
EndChar

StartChar: uni2073
Encoding: 8307 8307 130
Width: 721
VWidth: 1920
Flags: HMW
LayerCount: 2
Fore
SplineSet
148 874 m 2
 290 874 l 2
 294 874 295 872 294 868 c 2
 285 826 l 6
 273 774 322 739 407 739 c 4
 497 739 568 783 581 841 c 6
 594 898 l 6
 610 966 548 1006 462 1006 c 6
 414 1006 l 2
 410 1006 409 1008 410 1012 c 2
 437 1130 l 6
 438 1134 440 1136 444 1136 c 6
 480 1136 l 6
 580 1136 627 1182 641 1244 c 6
 650 1283 l 6
 661 1329 629 1361 549 1361 c 4
 479 1361 416 1331 400 1261 c 6
 388 1207 l 2
 387 1203 384 1201 380 1201 c 2
 244 1201 l 2
 240 1201 239 1203 240 1207 c 2
 252 1261 l 2
 284 1401 424 1491 582 1491 c 4
 740 1491 839 1418 807 1280 c 2
 803 1265 l 2
 768 1115 617 1062 463 1062 c 1
 482 1092 l 1
 636 1092 780 1033 745 883 c 2
 734 838 l 2
 701 694 549 609 371 609 c 0
 220 609 99 689 131 826 c 2
 140 868 l 2
 141 872 144 874 148 874 c 2
EndSplineSet
EndChar

StartChar: uni2072
Encoding: 8306 8306 131
Width: 692
VWidth: 1920
Flags: HMW
LayerCount: 2
Fore
SplineSet
100 693 m 258
 175 1019 614 1089 653 1257 c 258
 659 1284 l 258
 672 1340 631 1368 557 1368 c 256
 475 1368 408 1322 389 1238 c 258
 376 1184 l 2
 375 1180 373 1178 369 1178 c 2
 233 1178 l 2
 229 1178 227 1180 228 1184 c 2
 241 1238 l 258
 279 1402 417 1498 593 1498 c 256
 751 1498 839 1419 807 1281 c 258
 801 1254 l 258
 746 1016 326 928 293 785 c 258
 292 779 l 257
 686 779 l 2
 690 779 691 777 690 773 c 2
 660 643 l 2
 659 639 657 637 653 637 c 2
 93 637 l 2
 89 637 87 639 88 643 c 2
 100 693 l 258
EndSplineSet
EndChar

StartChar: uni2070
Encoding: 8304 8304 132
Width: 770
VWidth: 1920
Flags: HMW
LayerCount: 2
Fore
SplineSet
173 923 m 258
 232 1178 l 258
 277 1373 418 1491 609 1491 c 260
 800 1491 887 1373 842 1178 c 258
 783 923 l 258
 738 727 597 609 406 609 c 260
 215 609 128 727 173 923 c 258
330 935 m 262
 296 786 344 733 434 733 c 260
 524 733 598 786 632 935 c 262
 685 1166 l 262
 719 1315 671 1367 581 1367 c 260
 491 1367 417 1315 383 1166 c 262
 330 935 l 262
EndSplineSet
EndChar

StartChar: uni2075
Encoding: 8309 8309 133
Width: 754
VWidth: 1920
Flags: HMW
LayerCount: 2
Fore
SplineSet
181 844 m 2
 311 844 l 2
 315 844 316 842 315 838 c 0
 306 764 335 726 423 726 c 0
 512 726 577 766 599 862 c 2
 616 937 l 2
 639 1037 604 1086 524 1086 c 0
 482 1086 421 1063 386 1021 c 0
 382 1016 378 1015 374 1015 c 2
 232 1015 l 2
 228 1015 227 1016 229 1021 c 2
 394 1457 l 2
 396 1461 399 1463 403 1463 c 2
 851 1463 l 2
 855 1463 856 1461 855 1457 c 2
 844 1408 l 2
 834 1366 809 1333 707 1333 c 2
 494 1333 l 1
 376 1070 l 1
 353 1070 l 1
 403 1144 485 1216 601 1216 c 0
 731 1216 812 1117 766 919 c 2
 757 880 l 2
 714 692 576 602 394 602 c 0
 234 602 149 694 173 838 c 0
 174 842 177 844 181 844 c 2
EndSplineSet
EndChar

StartChar: uni2076
Encoding: 8310 8310 134
Width: 836
VWidth: 1920
Flags: HMW
LayerCount: 2
Fore
SplineSet
546 1054 m 260
 466 1054 346 1015 325 925 c 262
 315 883 l 261
 293 943 l 261
 329 1101 476 1184 600 1184 c 260
 764 1184 863 1068 825 904 c 262
 818 874 l 262
 779 707 628 609 443 609 c 260
 217 609 148 730 198 946 c 262
 242 1136 l 262
 295 1364 445 1491 641 1491 c 260
 819 1491 903 1389 878 1279 c 262
 874 1261 l 6
 873 1257 871 1255 867 1255 c 6
 737 1255 l 6
 733 1255 731 1257 732 1261 c 6
 736 1279 l 262
 748 1329 711 1361 623 1361 c 260
 507 1361 412 1303 373 1133 c 262
 315 883 l 262
 293 789 355 739 467 739 c 260
 586 739 645 792 665 880 c 262
 671 904 l 262
 692 994 650 1054 546 1054 c 260
EndSplineSet
EndChar

StartChar: uni2077
Encoding: 8311 8311 135
Width: 652
VWidth: 1920
Flags: HMW
LayerCount: 2
Fore
SplineSet
869 1464 m 2
 335 636 l 2
 332 632 329 630 325 630 c 2
 171 630 l 2
 167 630 166 632 169 636 c 2
 654 1334 l 261
 264 1334 l 2
 260 1334 258 1336 259 1340 c 2
 288 1464 l 2
 289 1468 291 1470 295 1470 c 2
 867 1470 l 2
 871 1470 872 1468 869 1464 c 2
EndSplineSet
EndChar

StartChar: uni2078
Encoding: 8312 8312 136
Width: 812
VWidth: 1920
Flags: HMW
LayerCount: 2
Fore
SplineSet
456 736 m 256
 554 736 617 777 635 855 c 262
 643 886 l 258
 661 964 616 1006 518 1006 c 256
 420 1006 357 964 339 886 c 258
 331 855 l 258
 313 777 358 736 456 736 c 256
548 1136 m 256
 628 1136 677 1163 693 1234 c 258
 700 1263 l 258
 715 1329 680 1364 601 1364 c 256
 522 1364 471 1329 456 1263 c 258
 449 1234 l 258
 433 1163 468 1136 548 1136 c 256
556 1086 m 257
 724 1086 824 1004 792 865 c 258
 785 838 l 258
 751 690 632 609 427 609 c 256
 222 609 139 690 173 838 c 258
 180 865 l 258
 212 1004 350 1086 518 1086 c 257
 514 1062 l 257
 355 1065 271 1132 302 1265 c 258
 306 1280 l 258
 337 1413 469 1491 630 1491 c 256
 791 1491 889 1413 858 1280 c 258
 854 1265 l 258
 823 1132 709 1065 548 1062 c 257
 556 1086 l 257
EndSplineSet
EndChar

StartChar: uni2079
Encoding: 8313 8313 137
Width: 826
VWidth: 1920
Flags: HMW
LayerCount: 2
Fore
SplineSet
524 1046 m 256
 604 1046 725 1085 746 1175 c 258
 756 1217 l 257
 778 1157 l 257
 742 999 594 916 470 916 c 256
 306 916 218 1032 256 1196 c 258
 263 1226 l 258
 302 1393 443 1491 628 1491 c 256
 854 1491 922 1370 872 1154 c 258
 829 964 l 258
 776 736 616 609 420 609 c 256
 242 609 148 711 173 821 c 262
 177 839 l 6
 178 843 180 845 184 845 c 6
 314 845 l 6
 318 845 320 843 319 839 c 6
 315 821 l 262
 303 771 350 739 438 739 c 256
 554 739 659 797 698 967 c 258
 756 1217 l 258
 778 1311 716 1361 604 1361 c 256
 485 1361 436 1308 416 1220 c 258
 410 1196 l 258
 389 1106 420 1046 524 1046 c 256
EndSplineSet
EndChar

StartChar: uni00B9
Encoding: 185 185 138
Width: 514
VWidth: 1920
Flags: HMW
LayerCount: 2
Fore
SplineSet
405 1465 m 4
 436 1466 477 1478 489 1504 c 4
 491 1508 495 1510 499 1510 c 6
 557 1510 l 6
 561 1510 562 1508 561 1504 c 6
 363 646 l 6
 362 642 360 640 356 640 c 6
 214 640 l 6
 210 640 208 642 209 646 c 6
 397 1458 l 6
 398 1462 400 1465 405 1465 c 4
EndSplineSet
EndChar

StartChar: cent
Encoding: 162 162 154
Width: 968
VWidth: 1920
Flags: HMW
LayerCount: 2
Fore
SplineSet
656 1240 m 6
 716 1240 l 6
 723 1240 726 1237 724 1230 c 6
 398 -180 l 6
 396 -187 393 -190 386 -190 c 6
 326 -190 l 6
 319 -190 316 -187 318 -180 c 6
 644 1230 l 6
 646 1237 649 1240 656 1240 c 6
EndSplineSet
Refer: 40 99 N 1 0 0 1 0 0 2
EndChar

StartChar: uni203D
Encoding: 8253 8253 157
Width: 1080
VWidth: 1920
Flags: HMW
LayerCount: 2
Fore
SplineSet
564 950 m 2
 594 1080 l 2
 596 1087 600 1090 607 1090 c 2
 777 1090 l 2
 784 1090 786 1087 784 1080 c 2
 754 950 l 2
 752 943 752 937 749 930 c 2
 551 410 l 2
 548 403 544 400 537 400 c 2
 507 400 l 2
 500 400 498 403 499 410 c 2
 561 930 l 2
 562 937 562 943 564 950 c 2
535 0 m 2
 345 0 l 2
 338 0 335 3 337 10 c 2
 381 200 l 2
 383 207 386 210 393 210 c 2
 583 210 l 2
 590 210 593 207 591 200 c 2
 547 10 l 2
 545 3 542 0 535 0 c 2
552 400 m 2
 532 400 l 2
 525 400 523 403 523 409 c 0
 554 731 858 748 921 1023 c 258
 932 1068 l 258
 960 1188 913 1285 756 1285 c 256
 586 1285 479 1185 448 1052 c 258
 427 962 l 2
 425 955 422 952 415 952 c 2
 255 952 l 2
 248 952 245 955 247 962 c 2
 268 1052 l 258
 320 1276 523 1435 800 1435 c 256
 1047 1435 1184 1293 1133 1073 c 258
 1127 1048 l 258
 1055 735 714 713 586 408 c 0
 584 403 559 400 552 400 c 2
EndSplineSet
EndChar

StartChar: ordfeminine
Encoding: 170 170 159
Width: 847
VWidth: 1920
Flags: HMW
LayerCount: 2
Fore
SplineSet
322 854 m 0
 307 790 333 739 421 739 c 256
 505 739 624 806 658 952 c 257
 706 902 l 261
 673 759 538 609 347 609 c 256
 188 609 112 699 143 834 c 0
 178 985 292 1080 537 1119 c 256
 667 1139 706 1159 725 1242 c 257
 737 1122 l 257
 722 1059 656 1027 538 1004 c 256
 394 977 336 914 322 854 c 0
635 852 m 258
 729 1262 l 258
 743 1322 708 1359 613 1359 c 256
 514 1359 454 1302 431 1226 c 0
 430 1220 426 1217 419 1217 c 2
 289 1217 l 2
 282 1217 280 1220 282 1226 c 0
 341 1379 426 1489 662 1489 c 256
 872 1489 920 1395 872 1187 c 258
 795 852 l 258
 773 758 779 693 805 651 c 0
 808 646 808 644 801 644 c 2
 657 644 l 2
 650 644 644 646 642 650 c 0
 615 693 613 757 635 852 c 258
EndSplineSet
EndChar

StartChar: exclamdown
Encoding: 161 161 160
Width: 540
VWidth: 1920
Flags: HMW
LayerCount: 2
Fore
SplineSet
297 1050 m 2
 487 1050 l 2
 494 1050 497 1047 495 1040 c 2
 451 850 l 2
 449 843 446 840 439 840 c 2
 249 840 l 2
 242 840 239 843 241 850 c 2
 285 1040 l 2
 287 1047 290 1050 297 1050 c 2
268 100 m 2
 155 -390 l 2
 153 -397 150 -400 143 -400 c 2
 -27 -400 l 2
 -34 -400 -37 -397 -35 -390 c 2
 78 100 l 2
 80 107 81 113 84 120 c 2
 255 610 l 2
 258 617 261 620 268 620 c 2
 318 620 l 2
 325 620 328 617 327 610 c 2
 272 120 l 2
 271 113 270 107 268 100 c 2
EndSplineSet
EndChar

StartChar: AE
Encoding: 198 198 161
Width: 2200
VWidth: 1920
Flags: HMW
LayerCount: 2
Fore
SplineSet
462 570 m 261
 1132 570 l 261
 1097 420 l 261
 427 420 l 261
 462 570 l 261
1368 1400 m 5
 135 10 l 6
 130 4 127 0 120 0 c 6
 -70 0 l 6
 -77 0 -79 5 -75 10 c 6
 1153 1390 l 6
 1157 1395 1161 1400 1168 1400 c 6
 1368 1400 l 5
EndSplineSet
Refer: 16 69 N 1 0 0 1 920 0 2
EndChar

StartChar: questiondown
Encoding: 191 191 162
Width: 1080
VWidth: 1920
Flags: HMW
LayerCount: 2
Fore
SplineSet
617 1050 m 2
 807 1050 l 2
 814 1050 817 1047 815 1040 c 2
 771 850 l 2
 769 843 766 840 759 840 c 2
 569 840 l 2
 562 840 559 843 561 850 c 2
 605 1040 l 2
 607 1047 610 1050 617 1050 c 2
580 650 m 2
 670 650 l 2
 677 650 679 647 679 641 c 0
 648 319 294 302 231 27 c 258
 221 -18 l 258
 193 -138 240 -235 397 -235 c 256
 567 -235 674 -135 705 -2 c 258
 725 88 l 2
 727 95 731 98 738 98 c 2
 898 98 l 2
 905 98 907 95 905 88 c 2
 885 -2 l 258
 833 -226 629 -385 352 -385 c 256
 105 -385 -31 -243 20 -23 c 258
 25 2 l 258
 97 315 438 337 566 642 c 0
 568 647 573 650 580 650 c 2
EndSplineSet
EndChar

StartChar: yen
Encoding: 165 165 163
Width: 1239
VWidth: 1920
Flags: HMW
LayerCount: 2
Fore
SplineSet
136 285 m 14
 160 390 l 22
 162 397 165 400 172 400 c 14
 1052 400 l 22
 1059 400 1062 397 1060 390 c 14
 1036 285 l 22
 1034 278 1030 275 1023 275 c 14
 143 275 l 22
 136 275 134 278 136 285 c 14
198 555 m 14
 222 660 l 22
 224 667 228 670 235 670 c 14
 1115 670 l 22
 1122 670 1124 667 1122 660 c 14
 1098 555 l 22
 1096 548 1093 545 1086 545 c 14
 206 545 l 22
 199 545 196 548 198 555 c 14
EndSplineSet
Refer: 36 89 N 1 0 0 1 0 0 2
EndChar

StartChar: gravecomb
Encoding: 768 768 164
Width: 0
Flags: HMW
AnchorPoint: "top" -563 1000 mark 0
LayerCount: 2
Fore
SplineSet
-509 1104 m 6
 -609 1104 l 6
 -616 1104 -623 1109 -627 1114 c 6
 -838 1390 l 6
 -842 1395 -843 1400 -836 1400 c 6
 -626 1400 l 6
 -619 1400 -614 1397 -612 1390 c 6
 -503 1114 l 6
 -501 1107 -502 1104 -509 1104 c 6
EndSplineSet
EndChar

StartChar: acutecomb
Encoding: 769 769 165
Width: 0
Flags: HMW
AnchorPoint: "top" -548 1000 mark 0
LayerCount: 2
Fore
SplineSet
-582 1104 m 6
 -589 1104 -590 1107 -584 1114 c 6
 -347 1390 l 6
 -341 1397 -336 1400 -329 1400 c 6
 -119 1400 l 6
 -112 1400 -115 1395 -121 1390 c 6
 -460 1114 l 6
 -466 1109 -475 1104 -482 1104 c 6
 -582 1104 l 6
EndSplineSet
EndChar

StartChar: uni0302
Encoding: 770 770 166
Width: 0
VWidth: 1920
Flags: HMW
AnchorPoint: "top" -559 1000 mark 0
LayerCount: 2
Fore
SplineSet
-482 1291 m 261
 -670 1110 l 6
 -675 1105 -684 1100 -691 1100 c 6
 -796 1100 l 6
 -803 1100 -805 1104 -800 1110 c 6
 -553 1390 l 6
 -546 1398 -544 1400 -537 1400 c 6
 -377 1400 l 6
 -370 1400 -368 1398 -365 1390 c 6
 -238 1110 l 6
 -235 1104 -234 1100 -246 1100 c 6
 -351 1100 l 6
 -361 1100 -365 1105 -368 1110 c 6
 -482 1291 l 261
EndSplineSet
EndChar

StartChar: tildecomb
Encoding: 771 771 167
Width: 0
Flags: HMW
AnchorPoint: "top" -578 1000 mark 0
LayerCount: 2
Fore
SplineSet
-600 1289 m 256
 -642 1289 -668 1250 -679 1217 c 4
 -681 1211 -684 1208 -691 1208 c 6
 -801 1208 l 2
 -808 1208 -810 1211 -809 1217 c 0
 -773 1355 -679 1429 -588 1429 c 256
 -459 1429 -448 1322 -346 1322 c 256
 -304 1322 -277 1361 -267 1393 c 0
 -264 1400 -262 1403 -255 1403 c 2
 -146 1403 l 2
 -139 1403 -136 1400 -138 1393 c 0
 -174 1255 -268 1182 -358 1182 c 256
 -487 1182 -498 1289 -600 1289 c 256
EndSplineSet
EndChar

StartChar: uni0304
Encoding: 772 772 168
Width: 0
VWidth: 1920
Flags: HMW
AnchorPoint: "top" -560 1000 mark 0
LayerCount: 2
Fore
SplineSet
-792 1205 m 14
 -765 1320 l 22
 -763 1327 -760 1330 -753 1330 c 14
 -233 1330 l 22
 -226 1330 -223 1327 -225 1320 c 14
 -252 1205 l 22
 -254 1198 -257 1195 -264 1195 c 14
 -784 1195 l 22
 -791 1195 -794 1198 -792 1205 c 14
EndSplineSet
EndChar

StartChar: uni0306
Encoding: 774 774 169
Width: 0
VWidth: 1920
Flags: HMW
AnchorPoint: "top" -560 1000 mark 0
LayerCount: 2
Fore
SplineSet
-509 1305 m 4
 -399 1305 -323 1359 -306 1427 c 4
 -304 1435 -300 1438 -293 1438 c 6
 -178 1438 l 6
 -171 1438 -167 1435 -171 1424 c 4
 -212 1282 -336 1175 -539 1175 c 4
 -742 1175 -818 1283 -791 1427 c 4
 -789 1435 -785 1438 -778 1438 c 6
 -663 1438 l 6
 -656 1438 -654 1435 -656 1425 c 4
 -671 1355 -617 1305 -509 1305 c 4
EndSplineSet
EndChar

StartChar: uni0307
Encoding: 775 775 170
Width: 0
Flags: HMW
AnchorPoint: "top" -548 1000 mark 0
LayerCount: 2
Fore
SplineSet
-380 1190 m 6
 -570 1190 l 6
 -577 1190 -580 1193 -578 1200 c 6
 -534 1390 l 6
 -532 1397 -529 1400 -522 1400 c 6
 -332 1400 l 6
 -325 1400 -322 1397 -324 1390 c 6
 -368 1200 l 6
 -370 1193 -373 1190 -380 1190 c 6
EndSplineSet
EndChar

StartChar: uni0308
Encoding: 776 776 171
Width: 0
Flags: HMW
AnchorPoint: "top" -548 1000 mark 0
LayerCount: 2
Fore
SplineSet
-580 1190 m 6
 -770 1190 l 6
 -777 1190 -780 1193 -778 1200 c 6
 -734 1390 l 6
 -732 1397 -729 1400 -722 1400 c 6
 -532 1400 l 6
 -525 1400 -522 1397 -524 1390 c 6
 -568 1200 l 6
 -570 1193 -573 1190 -580 1190 c 6
-230 1190 m 6
 -420 1190 l 6
 -427 1190 -430 1193 -428 1200 c 6
 -384 1390 l 6
 -382 1397 -379 1400 -372 1400 c 6
 -182 1400 l 6
 -175 1400 -172 1397 -174 1390 c 6
 -218 1200 l 6
 -220 1193 -223 1190 -230 1190 c 6
EndSplineSet
EndChar

StartChar: uni030A
Encoding: 778 778 172
Width: 0
Flags: HMW
AnchorPoint: "top" -554 1000 mark 0
LayerCount: 2
Fore
SplineSet
-360 1312 m 0
 -360 1208 -450 1122 -554 1122 c 0
 -660 1122 -750 1206 -750 1312 c 0
 -750 1414 -660 1502 -554 1502 c 0
 -448 1502 -360 1420 -360 1312 c 0
-454 1312 m 0
 -454 1368 -500 1407 -554 1407 c 0
 -608 1407 -654 1362 -654 1312 c 0
 -654 1258 -608 1217 -554 1217 c 0
 -502 1217 -454 1262 -454 1312 c 0
EndSplineSet
EndChar

StartChar: uni030B
Encoding: 779 779 173
Width: 0
Flags: HMW
AnchorPoint: "top" -618 1000 mark 0
LayerCount: 2
Fore
SplineSet
-472 1104 m 6
 -479 1104 -480 1107 -474 1114 c 6
 -237 1390 l 6
 -231 1397 -226 1400 -219 1400 c 6
 -9 1400 l 6
 -2 1400 -5 1395 -11 1390 c 6
 -350 1114 l 6
 -356 1109 -365 1104 -372 1104 c 6
 -472 1104 l 6
-802 1104 m 6
 -809 1104 -810 1107 -804 1114 c 6
 -567 1390 l 6
 -561 1397 -556 1400 -549 1400 c 6
 -339 1400 l 6
 -332 1400 -335 1395 -341 1390 c 6
 -680 1114 l 6
 -686 1109 -695 1104 -702 1104 c 6
 -802 1104 l 6
EndSplineSet
EndChar

StartChar: uni030C
Encoding: 780 780 174
Width: 0
Flags: HMW
AnchorPoint: "top" -554 1000 mark 0
LayerCount: 2
Fore
SplineSet
-480 1229 m 261
 -292 1410 l 6
 -287 1415 -278 1420 -271 1420 c 6
 -166 1420 l 6
 -159 1420 -157 1416 -162 1410 c 6
 -409 1130 l 6
 -416 1122 -418 1120 -425 1120 c 6
 -585 1120 l 6
 -592 1120 -594 1122 -597 1130 c 6
 -724 1410 l 6
 -727 1416 -728 1420 -716 1420 c 6
 -611 1420 l 6
 -601 1420 -597 1415 -594 1410 c 6
 -480 1229 l 261
EndSplineSet
EndChar

StartChar: uni030F
Encoding: 783 783 175
Width: 0
Flags: HMW
AnchorPoint: "top" -508 1000 mark 0
LayerCount: 2
Fore
SplineSet
-259 1104 m 6
 -359 1104 l 6
 -366 1104 -373 1109 -377 1114 c 6
 -588 1390 l 6
 -592 1395 -593 1400 -586 1400 c 6
 -376 1400 l 6
 -369 1400 -364 1397 -362 1390 c 6
 -253 1114 l 6
 -251 1107 -252 1104 -259 1104 c 6
-589 1104 m 6
 -689 1104 l 6
 -696 1104 -703 1109 -707 1114 c 6
 -918 1390 l 6
 -922 1395 -923 1400 -916 1400 c 6
 -706 1400 l 6
 -699 1400 -694 1397 -692 1390 c 6
 -583 1114 l 6
 -581 1107 -582 1104 -589 1104 c 6
EndSplineSet
EndChar

StartChar: uni0311
Encoding: 785 785 176
Width: 0
Flags: HMW
AnchorPoint: "top" -604 1000 mark 0
LayerCount: 2
Fore
SplineSet
-523 1305 m 4
 -633 1305 -709 1251 -726 1183 c 4
 -728 1175 -731 1172 -738 1172 c 6
 -853 1172 l 6
 -860 1172 -864 1175 -860 1186 c 4
 -819 1328 -696 1435 -493 1435 c 4
 -290 1435 -214 1327 -241 1183 c 4
 -243 1175 -246 1172 -253 1172 c 6
 -368 1172 l 6
 -375 1172 -377 1175 -375 1185 c 4
 -360 1255 -415 1305 -523 1305 c 4
EndSplineSet
EndChar

StartChar: dotbelowcomb
Encoding: 803 803 177
Width: 0
Flags: HMW
AnchorPoint: "bottom" -551 0 mark 0
LayerCount: 2
Fore
SplineSet
-538 -360 m 6
 -728 -360 l 6
 -735 -360 -738 -357 -736 -350 c 6
 -692 -160 l 6
 -690 -153 -687 -150 -680 -150 c 6
 -490 -150 l 6
 -483 -150 -480 -153 -482 -160 c 6
 -526 -350 l 6
 -528 -357 -531 -360 -538 -360 c 6
EndSplineSet
EndChar

StartChar: uni0326
Encoding: 806 806 178
Width: 0
Flags: HMW
AnchorPoint: "bottom" -561 0 mark 0
LayerCount: 2
Fore
SplineSet
-777 -570 m 6
 -807 -570 l 6
 -814 -570 -815 -568 -809 -560 c 6
 -658 -360 l 261
 -728 -360 l 6
 -737 -360 -738 -359 -736 -350 c 6
 -692 -160 l 6
 -690 -153 -687 -150 -680 -150 c 6
 -490 -150 l 6
 -483 -150 -480 -153 -482 -160 c 6
 -523 -340 l 6
 -525 -347 -528 -351 -537 -360 c 6
 -755 -560 l 6
 -764 -568 -769 -570 -777 -570 c 6
EndSplineSet
EndChar

StartChar: uni0327
Encoding: 807 807 179
Width: 1200
Flags: HMW
AnchorPoint: "bottom" -531 0 mark 0
LayerCount: 2
Fore
SplineSet
-633 -500 m 0
 -712 -500 -768 -486 -821 -451 c 0
 -831 -444 -831 -444 -826 -434 c 2
 -790 -354 l 2
 -785 -344 -785 -344 -776 -349 c 0
 -724 -377 -682 -382 -633 -382 c 0
 -539 -382 -493 -364 -493 -312 c 0
 -493 -266 -551 -241 -680 -240 c 0
 -693 -240 -693 -240 -697 -230 c 2
 -713 -196 l 2
 -717 -187 -714 -183 -709 -176 c 2
 -547 60 l 1
 -405 60 l 1
 -572 -172 l 1
 -556 -167 -540 -164 -525 -164 c 0
 -439 -164 -349 -212 -349 -312 c 0
 -349 -440 -479 -500 -633 -500 c 0
EndSplineSet
EndChar

StartChar: uni0328
Encoding: 808 808 180
Width: 1200
Flags: HMW
AnchorPoint: "ogonek" -551 0 mark 0
LayerCount: 2
Fore
SplineSet
-587 -310 m 6
 -614 -430 l 6
 -616 -437 -620 -440 -627 -440 c 6
 -707 -440 l 6
 -875 -440 -933 -358 -906 -240 c 4
 -879 -122 -728 -2 -551 70 c 5
 -505 0 l 5
 -619 -44 -720 -126 -739 -210 c 4
 -753 -272 -724 -300 -664 -300 c 6
 -594 -300 l 6
 -587 -300 -585 -303 -587 -310 c 6
EndSplineSet
EndChar

StartChar: uni0312
Encoding: 786 786 181
Width: 0
Flags: HMW
AnchorPoint: "top" -604 950 mark 0
LayerCount: 2
Fore
SplineSet
-399 1430 m 6
 -369 1430 l 6
 -362 1430 -360 1428 -366 1420 c 6
 -517 1220 l 261
 -447 1220 l 6
 -438 1220 -438 1219 -440 1210 c 6
 -484 1020 l 6
 -486 1013 -489 1010 -496 1010 c 6
 -686 1010 l 6
 -693 1010 -696 1013 -694 1020 c 6
 -652 1200 l 6
 -650 1207 -647 1211 -638 1220 c 6
 -420 1420 l 6
 -411 1428 -407 1430 -399 1430 c 6
EndSplineSet
EndChar

StartChar: sterling
Encoding: 163 163 182
Width: 1280
VWidth: 1920
Flags: HMW
LayerCount: 2
Fore
SplineSet
79 645 m 14
 101 740 l 18
 103 747 106 750 113 750 c 10
 773 750 l 18
 780 750 783 747 781 740 c 10
 759 645 l 22
 757 638 754 635 747 635 c 14
 87 635 l 22
 80 635 77 638 79 645 c 14
-0 154 m 0
 143 270 279 305 327 514 c 0
 373 712 204 795 261 1043 c 0
 314 1273 499 1435 786 1435 c 0
 1080 1435 1189 1266 1134 971 c 0
 1132 963 1129 963 1122 963 c 2
 972 963 l 2
 965 963 962 963 964 971 c 0
 1007 1176 939 1295 764 1295 c 0
 587 1295 482 1223 445 1063 c 0
 401 872 539 740 487 514 c 0
 445 332 294 241 155 155 c 1
 946 155 l 2
 953 155 955 152 953 145 c 2
 922 10 l 2
 920 3 917 0 910 0 c 2
 -30 0 l 2
 -37 0 -40 3 -38 10 c 2
 -7 145 l 2
 -6 149 -5 150 -0 154 c 0
EndSplineSet
EndChar

StartChar: currency
Encoding: 164 164 183
Width: 1112
Flags: HMW
LayerCount: 2
Fore
SplineSet
1116 1204 m 14
 1185 1116 l 22
 1189 1111 1187 1107 1181 1102 c 14
 981 939 l 22
 975 934 971 934 967 939 c 14
 899 1027 l 22
 895 1032 897 1037 903 1042 c 14
 1102 1204 l 22
 1108 1209 1112 1209 1116 1204 c 14
220 476 m 14
 288 388 l 22
 292 383 290 378 284 373 c 14
 85 211 l 22
 79 206 75 206 71 211 c 14
 2 299 l 22
 -2 304 -1 308 5 313 c 14
 206 476 l 22
 212 481 216 481 220 476 c 14
191 1116 m 14
 300 1204 l 22
 306 1209 310 1209 314 1204 c 14
 439 1042 l 22
 443 1037 441 1032 435 1027 c 14
 327 939 l 22
 321 934 317 934 313 939 c 14
 187 1102 l 22
 183 1107 185 1111 191 1116 c 14
752 388 m 14
 860 476 l 22
 866 481 870 481 874 476 c 14
 999 313 l 22
 1003 308 1002 304 996 299 c 14
 887 211 l 22
 881 206 877 206 873 211 c 14
 748 373 l 22
 744 378 746 383 752 388 c 14
107 710 m 0
 169 979 441 1200 710 1200 c 0
 979 1200 1149 979 1087 710 c 0
 1025 441 753 220 484 220 c 0
 215 220 45 441 107 710 c 0
267 710 m 0
 223 521 329 370 518 370 c 0
 707 370 883 521 927 710 c 0
 971 899 864 1050 675 1050 c 0
 486 1050 311 899 267 710 c 0
EndSplineSet
EndChar

StartChar: brokenbar
Encoding: 166 166 184
Width: 415
VWidth: 1920
Flags: HMW
LayerCount: 2
Fore
SplineSet
117 430 m 14
 257 430 l 22
 264 430 267 427 265 420 c 14
 87 -350 l 18
 85 -357 82 -360 75 -360 c 10
 -65 -360 l 18
 -72 -360 -75 -357 -73 -350 c 10
 105 420 l 22
 107 427 110 430 117 430 c 14
387 1600 m 10
 527 1600 l 18
 534 1600 537 1597 535 1590 c 10
 357 820 l 18
 355 813 352 810 345 810 c 10
 205 810 l 18
 198 810 195 813 197 820 c 10
 375 1590 l 18
 377 1597 380 1600 387 1600 c 10
EndSplineSet
EndChar

StartChar: section
Encoding: 167 167 185
Width: 1086
VWidth: 1920
Flags: HMW
LayerCount: 2
Fore
SplineSet
559 850 m 257
 414 850 295 736 268 618 c 256
 243 511 286 424 444 321 c 256
 653 185 771 67 734 -93 c 256
 692 -275 528 -400 301 -400 c 256
 67 -400 -7 -267 27 -57 c 0
 28 -51 32 -48 39 -48 c 2
 178 -48 l 2
 185 -48 188 -51 187 -58 c 0
 171 -188 191 -265 334 -265 c 256
 462 -265 537 -210 560 -110 c 256
 578 -32 501 71 357 162 c 256
 110 318 49 406 85 563 c 256
 136 785 325 930 589 930 c 257
 559 850 l 257
526 185 m 257
 671 185 790 299 817 417 c 256
 842 524 799 611 641 714 c 256
 432 850 314 968 351 1128 c 256
 393 1310 557 1435 784 1435 c 256
 1018 1435 1092 1302 1058 1092 c 0
 1057 1086 1053 1083 1046 1083 c 2
 907 1083 l 2
 900 1083 897 1086 898 1093 c 0
 914 1223 894 1300 751 1300 c 256
 623 1300 548 1245 525 1145 c 256
 507 1067 584 964 728 873 c 256
 975 717 1036 629 1000 472 c 256
 949 250 760 105 496 105 c 257
 526 185 l 257
EndSplineSet
EndChar

StartChar: copyright
Encoding: 169 169 186
Width: 1484
Flags: HMW
LayerCount: 2
Fore
SplineSet
1086 549 m 256
 1033 374 887 229 667 229 c 256
 435 229 347 393 400 621 c 258
 423 720 l 258
 476 948 638 1111 870 1111 c 256
 1090 1111 1162 979 1134 834 c 256
 1133 829 1130 828 1126 828 c 258
 1037 828 l 258
 1033 828 1031 829 1032 834 c 256
 1057 945 987 1027 857 1027 c 256
 703 1027 582 888 545 726 c 258
 519 615 l 258
 482 453 526 313 692 313 c 256
 834 313 956 421 984 549 c 256
 985 554 987 555 991 555 c 258
 1081 555 l 258
 1085 555 1087 554 1086 549 c 256
1473 668 m 0
 1384 284 999 -28 615 -28 c 0
 231 -28 -10 284 79 668 c 0
 168 1052 552 1366 936 1366 c 0
 1320 1366 1562 1052 1473 668 c 0
1387 668 m 0
 1465 1006 1255 1280 917 1280 c 0
 579 1280 243 1006 165 668 c 0
 87 330 296 58 634 58 c 0
 972 58 1309 330 1387 668 c 0
EndSplineSet
EndChar

StartChar: registered
Encoding: 174 174 188
Width: 1484
Flags: HMW
LayerCount: 2
Fore
SplineSet
656 1030 m 261
 592 754 l 261
 832 754 l 262
 932 754 994 795 1011 867 c 262
 1023 917 l 262
 1040 989 996 1030 896 1030 c 262
 656 1030 l 261
917 1120 m 262
 1071 1120 1173 1049 1140 905 c 262
 1137 891 l 262
 1104 747 971 688 817 688 c 261
 825 724 l 261
 979 724 1081 677 1048 533 c 262
 1035 477 l 262
 1019 409 1025 358 1044 317 c 4
 1047 310 1047 308 1046 304 c 6
 1042 286 l 6
 1041 282 1039 280 1035 280 c 6
 927 280 l 6
 923 280 921 280 919 285 c 4
 900 344 909 425 921 477 c 262
 938 551 l 262
 955 623 911 664 811 664 c 262
 571 664 l 261
 484 286 l 6
 483 282 481 280 477 280 c 6
 375 280 l 6
 371 280 369 282 370 286 c 6
 561 1114 l 6
 562 1118 565 1120 569 1120 c 6
 917 1120 l 262
1473 668 m 0
 1384 284 999 -28 615 -28 c 0
 231 -28 -10 284 79 668 c 0
 168 1052 552 1366 936 1366 c 0
 1320 1366 1562 1052 1473 668 c 0
1387 668 m 0
 1465 1006 1255 1280 917 1280 c 0
 579 1280 243 1006 165 668 c 0
 87 330 296 58 634 58 c 0
 972 58 1309 330 1387 668 c 0
EndSplineSet
EndChar

StartChar: dotlessi
Encoding: 305 305 279
Width: 445
VWidth: 1920
Flags: HMW
AnchorPoint: "top" 347 1050 basechar 0
LayerCount: 2
Fore
SplineSet
438 1040 m 2
 200 10 l 2
 198 3 195 0 188 0 c 2
 18 0 l 2
 11 0 8 3 10 10 c 2
 248 1040 l 2
 250 1047 253 1050 260 1050 c 2
 430 1050 l 2
 437 1050 440 1047 438 1040 c 2
EndSplineSet
EndChar

StartChar: uni0237
Encoding: 567 567 291
Width: 434
VWidth: 1872
Flags: HMW
AnchorPoint: "top" 338 1050 basechar 0
LayerCount: 2
Fore
SplineSet
177 -59 m 2
 128 -271 -1 -371 -180 -371 c 0
 -399 -371 -390 -200 -355 -107 c 0
 -353 -102 -350 -100 -343 -100 c 2
 -197 -100 l 2
 -190 -100 -187 -103 -189 -107 c 0
 -225 -201 -224 -244 -165 -244 c 0
 -97 -244 -38 -185 -9 -60 c 2
 245 1040 l 2
 247 1047 250 1050 257 1050 c 2
 423 1050 l 2
 430 1050 433 1047 431 1040 c 2
 177 -59 l 2
EndSplineSet
EndChar

StartChar: kgreenlandic
Encoding: 312 312 298
Width: 970
VWidth: 1872
Flags: HMW
LayerCount: 2
Fore
SplineSet
252 1050 m 6
 418 1050 l 6
 425 1050 427 1047 425 1040 c 6
 185 10 l 2
 183 3 179 0 173 0 c 2
 7 0 l 2
 0 0 -3 3 -1 10 c 2
 239 1040 l 6
 241 1047 245 1050 252 1050 c 6
203 501 m 1
 809 1040 l 2
 818 1048 822 1050 830 1050 c 2
 1045 1050 l 2
 1052 1050 1053 1048 1042 1040 c 2
 272 429 l 1
 203 501 l 1
460 650 m 1
 600 713 l 1
 866 10 l 2
 869 3 868 0 861 0 c 2
 665 0 l 2
 657 0 653 3 651 10 c 2
 460 650 l 1
EndSplineSet
EndChar

StartChar: grave
Encoding: 96 96 339
Width: 623
VWidth: 0
Flags: HMW
LayerCount: 2
Fore
SplineSet
591 1104 m 2
 491 1104 l 2
 484 1104 477 1109 473 1114 c 2
 262 1390 l 2
 258 1395 257 1400 264 1400 c 2
 474 1400 l 2
 481 1400 486 1397 488 1390 c 2
 597 1114 l 2
 599 1107 598 1104 591 1104 c 2
EndSplineSet
EndChar

StartChar: longs
Encoding: 383 383 352
Width: 602
VWidth: 1872
Flags: HMW
LayerCount: 2
Fore
SplineSet
329 1188 m 262
 376.785756504 1395.02674226 544 1529 825 1421 c 4
 833.452579449 1417.75132178 839.500746392 1412.84425278 835 1407 c 6
 768 1320 l 6
 763.577329415 1314.05909921 757.688838198 1307.22353926 746 1313 c 4
 574 1398 535.827148438 1293.02636719 507 1168 c 262
 157 -350 l 6
 155 -357 152 -360 145 -360 c 6
 -18 -360 l 6
 -25 -360 -28 -357 -26 -350 c 6
 329 1188 l 262
EndSplineSet
EndChar

StartChar: uni0259
Encoding: 601 601 359
Width: 1110
VWidth: 1920
Flags: HMW
LayerCount: 2
Fore
SplineSet
142 721 m 4
 247 955 447 1085 678 1085 c 260
 947 1085 1095 912 1023 602 c 262
 987 447 l 262
 918 147 689 -35 412 -35 c 260
 145 -35 35 161 61 376 c 260
 69 447 76 473 95 557 c 4
 96 562 99 565 106 565 c 6
 890 565 l 261
 863 445 l 261
 253 445 l 261
 206 218 279 95 442 95 c 260
 599 95 742 207 790 417 c 262
 840 632 l 262
 891 852 807 955 640 955 c 260
 508 955 377 866 311 718 c 4
 309 714 305 712 298 712 c 6
 148 712 l 6
 141 712 140 715 142 721 c 4
EndSplineSet
EndChar

StartChar: logicalnot
Encoding: 172 172 373
Width: 1150
VWidth: 2048
Flags: HMW
LayerCount: 2
Fore
SplineSet
150 605 m 2
 181 740 l 2
 183 747 186 750 193 750 c 2
 1073 750 l 2
 1080 750 1083 747 1081 740 c 2
 985 325 l 2
 983 318 980 315 973 315 c 2
 853 315 l 2
 846 315 843 318 845 325 c 2
 907 595 l 1
 157 595 l 2
 150 595 148 598 150 605 c 2
EndSplineSet
EndChar

StartChar: acute
Encoding: 180 180 374
Width: 619
Flags: HMW
LayerCount: 2
Fore
SplineSet
302 1104 m 6
 295 1104 294 1107 300 1114 c 6
 537 1390 l 6
 543 1397 548 1400 555 1400 c 6
 765 1400 l 6
 772 1400 769 1395 763 1390 c 6
 424 1114 l 6
 418 1109 409 1104 402 1104 c 6
 302 1104 l 6
EndSplineSet
EndChar

StartChar: degree
Encoding: 176 176 376
Width: 880
VWidth: 2048
Flags: HMW
LayerCount: 2
Fore
SplineSet
230 1083 m 258
 238 1118 l 258
 282 1308 469 1435 646 1435 c 256
 823 1435 962 1308 918 1118 c 258
 910 1083 l 258
 866 893 669 765 492 765 c 256
 315 765 186 893 230 1083 c 258
383 1073 m 262
 355 953 422 885 519 885 c 256
 616 885 725 953 753 1073 c 262
 765 1128 l 262
 793 1248 716 1315 619 1315 c 256
 522 1315 423 1248 395 1128 c 262
 383 1073 l 262
EndSplineSet
EndChar

StartChar: plusminus
Encoding: 177 177 377
Width: 1168
Flags: HMW
LayerCount: 2
Fore
SplineSet
33 210 m 14
 65 345 l 22
 67 352 70 355 77 355 c 14
 1007 355 l 22
 1014 355 1017 352 1015 345 c 14
 983 210 l 22
 981 203 978 200 971 200 c 14
 41 200 l 22
 34 200 31 203 33 210 c 14
210 975 m 14
 241 1110 l 22
 243 1117 247 1120 254 1120 c 14
 1184 1120 l 22
 1191 1120 1193 1117 1191 1110 c 14
 1160 975 l 22
 1158 968 1155 965 1148 965 c 14
 218 965 l 22
 211 965 208 968 210 975 c 14
739 1490 m 14
 869 1490 l 22
 876 1490 879 1487 877 1480 c 14
 669 580 l 22
 667 573 664 570 657 570 c 14
 527 570 l 22
 520 570 517 573 519 580 c 14
 727 1480 l 22
 729 1487 732 1490 739 1490 c 14
EndSplineSet
EndChar

StartChar: ae
Encoding: 230 230 379
Width: 1775
VWidth: 1920
Flags: HMW
LayerCount: 2
Fore
SplineSet
207 270 m 0
 185 176 214 95 362 95 c 256
 526 95 709 222 750 398 c 257
 824 328 l 257
 777 125 549 -35 308 -35 c 256
 109 -35 -39 45 15 280 c 0
 52 441 182 575 551 615 c 256
 740 635 809 655 828 738 c 257
 841 618 l 257
 826 555 727 524 551 500 c 256
 320 468 232 380 207 270 c 0
718 258 m 265
 840 788 l 258
 863 888 794 955 659 955 c 256
 510 955 391 858 355 722 c 0
 354 716 350 713 343 713 c 2
 193 713 l 2
 186 713 184 716 186 722 c 0
 264 955 442 1085 678 1085 c 260
 938 1085 1012 971 957 733 c 258
 848 258 l 273
 718 258 l 265
1635 329 m 0
 1530 95 1330 -35 1099 -35 c 256
 830 -35 742 138 814 448 c 258
 850 603 l 258
 919 903 1088 1085 1365 1085 c 256
 1632 1085 1743 889 1717 674 c 256
 1709 603 1702 577 1683 493 c 0
 1682 488 1678 485 1671 485 c 2
 887 485 l 257
 915 605 l 257
 1525 605 l 257
 1572 832 1498 955 1335 955 c 256
 1178 955 1035 843 987 633 c 258
 938 418 l 258
 887 198 970 95 1137 95 c 256
 1269 95 1401 184 1467 332 c 0
 1469 336 1472 338 1479 338 c 2
 1629 338 l 2
 1636 338 1637 335 1635 329 c 0
EndSplineSet
EndChar

StartChar: paragraph
Encoding: 182 182 380
Width: 1070
VWidth: 1920
Flags: HMW
LayerCount: 2
Fore
SplineSet
1109 1275 m 1
 734 -350 l 2
 732 -357 729 -360 722 -360 c 2
 592 -360 l 2
 585 -360 581 -357 584 -350 c 2
 959 1275 l 1
 829 1275 l 1
 454 -350 l 2
 451 -357 449 -360 442 -360 c 2
 312 -360 l 2
 305 -360 302 -357 304 -350 c 2
 524 600 l 1
 514 600 l 2
 307 600 141 698 203 968 c 2
 218 1032 l 2
 280 1302 491 1400 698 1400 c 2
 1228 1400 l 6
 1235 1400 1238 1397 1236 1390 c 2
 1212 1285 l 2
 1210 1278 1206 1275 1199 1275 c 2
 1109 1275 l 1
EndSplineSet
EndChar

StartChar: guilsinglleft
Encoding: 8249 8249 381
Width: 630
Flags: HMW
LayerCount: 2
Fore
SplineSet
390 216 m 2
 156 459 l 6
 150 463 148 468 150 475 c 6
 189 645 l 6
 191 652 195 657 203 661 c 6
 542 874 l 2
 550 878 553 877 551 870 c 2
 514 710 l 2
 512 703 509 698 500 694 c 2
 277 555 l 261
 431 396 l 2
 438 392 440 387 438 380 c 2
 401 220 l 2
 399 213 396 212 390 216 c 2
EndSplineSet
EndChar

StartChar: guilsinglright
Encoding: 8250 8250 382
Width: 630
Flags: W
HStem: 216 658
VStem: 91 397
LayerCount: 2
Fore
SplineSet
252 874 m 2
 488 641 l 2
 494 637 496 632 494 625 c 2
 455 455 l 2
 453 448 449 443 441 439 c 2
 100 216 l 2
 92 212 89 213 91 220 c 2
 128 380 l 2
 130 387 132 392 141 396 c 2
 367 545 l 257
 210 694 l 2
 203 698 202 703 204 710 c 2
 241 870 l 2
 243 877 246 878 252 874 c 2
EndSplineSet
EndChar

StartChar: mu
Encoding: 181 181 385
Width: 1110
VWidth: 1920
Flags: W
HStem: -360 21G<-74.5 102.5> -35 130<245.561 522.094> 0 21G<693.5 855.5> 1030 20G<250.5 427.5 920.5 1097.5>
LayerCount: 2
Fore
SplineSet
254 1050 m 2x90
 424 1050 l 2
 431 1050 434 1047 432 1040 c 2
 111 -350 l 2
 109 -357 106 -360 99 -360 c 2
 -71 -360 l 2
 -78 -360 -81 -357 -79 -350 c 2
 242 1040 l 2
 244 1047 247 1050 254 1050 c 2x90
852 0 m 2xb0
 697 0 l 2
 690 0 687 3 689 10 c 2
 732 193 l 257
 730 250 l 257
 912 1040 l 2
 914 1047 917 1050 924 1050 c 2
 1094 1050 l 2
 1101 1050 1104 1047 1102 1040 c 2
 864 10 l 2
 862 3 859 0 852 0 c 2xb0
802 347 m 257
 751 127 547 -35 340 -35 c 256
 133 -35 72 87 118 287 c 258
 292 1040 l 2
 294 1047 297 1050 304 1050 c 2
 424 1050 l 2
 431 1050 434 1047 432 1040 c 2
 258 287 l 258
 232 167 283 95 420 95 c 256xd0
 587 95 723 217 771 427 c 257
 802 347 l 257
EndSplineSet
EndChar

StartChar: Eth
Encoding: 208 208 387
Width: 1336
VWidth: 1920
Flags: W
HStem: 635 155<92.25 706.75>
LayerCount: 2
Fore
SplineSet
69 645 m 14
 100 780 l 22
 102 787 105 790 112 790 c 14
 722 790 l 22
 729 790 732 787 730 780 c 14
 699 645 l 22
 697 638 694 635 687 635 c 14
 77 635 l 22
 70 635 67 638 69 645 c 14
EndSplineSet
Refer: 15 68 N 1 0 0 1 0 0 2
EndChar

StartChar: Dcroat
Encoding: 272 272 388
Width: 1336
VWidth: 1920
Flags: W
HStem: 635 155<92.25 706.75>
LayerCount: 2
Fore
SplineSet
69 645 m 14
 100 780 l 22
 102 787 105 790 112 790 c 14
 722 790 l 22
 729 790 732 787 730 780 c 14
 699 645 l 22
 697 638 694 635 687 635 c 14
 77 635 l 22
 70 635 67 638 69 645 c 14
EndSplineSet
Refer: 15 68 N 1 0 0 1 0 0 2
EndChar

StartChar: thorn
Encoding: 254 254 389
Width: 1110
VWidth: 1920
Flags: W
HStem: -360 21G<-101.5 75.5> -35 140<343.238 640.821> 945 140<566.941 815.578> 1430 20G<316.5 493.5>
LayerCount: 2
Fore
SplineSet
320 1450 m 2
 490 1450 l 2
 497 1450 499 1447 497 1440 c 2
 84 -350 l 2
 82 -357 79 -360 72 -360 c 2
 -98 -360 l 2
 -105 -360 -108 -357 -106 -350 c 2
 307 1440 l 2
 309 1447 313 1450 320 1450 c 2
241 633 m 257
 308 923 552 1085 749 1085 c 256
 956 1085 1132 943 1054 603 c 258
 1018 447 l 258
 940 107 698 -35 491 -35 c 256
 294 -35 124 127 191 417 c 257
 266 437 l 257
 218 227 326 105 483 105 c 256
 630 105 773 207 821 417 c 258
 871 633 l 258
 919 843 824 945 677 945 c 256
 520 945 355 823 307 613 c 257
 241 633 l 257
EndSplineSet
EndChar

StartChar: Thorn
Encoding: 222 222 390
Width: 1280
VWidth: 1920
Flags: W
HStem: 0 21G<56.5 233.5> 350 150<355 894.605> 1000 150<505 981.718> 1380 20G<379.5 556.5>
LayerCount: 2
Fore
SplineSet
845 1150 m 6
 1132 1150 1298 1052 1236 782 c 6
 1221 718 l 6
 1159 448 948 350 661 350 c 6
 321 350 l 5
 242 10 l 2
 240 3 237 0 230 0 c 2
 60 0 l 2
 53 0 50 3 52 10 c 2
 371 1390 l 2
 373 1397 376 1400 383 1400 c 2
 553 1400 l 2
 560 1400 563 1397 561 1390 c 2
 505 1150 l 5
 845 1150 l 6
355 500 m 5
 695 500 l 6
 862 500 986 568 1014 688 c 6
 1042 812 l 6
 1070 932 978 1000 811 1000 c 6
 471 1000 l 5
 355 500 l 5
EndSplineSet
EndChar

StartChar: divide
Encoding: 247 247 391
Width: 1169
VWidth: 2048
Flags: W
HStem: 615 155<117.25 1101.75>
LayerCount: 2
Fore
SplineSet
94 625 m 10
 125 760 l 18
 127 767 131 770 138 770 c 10
 1118 770 l 18
 1125 770 1127 767 1125 760 c 10
 1094 625 l 18
 1092 618 1089 615 1082 615 c 10
 102 615 l 18
 95 615 92 618 94 625 c 10
EndSplineSet
Refer: 1 46 S 1 0 0 1 496 990 2
Refer: 1 46 S 1 0 0 1 356 180 2
EndChar

StartChar: multiply
Encoding: 215 215 392
Width: 1060
VWidth: 1920
Flags: W
LayerCount: 2
Fore
SplineSet
906 417 m 10
 825 336 l 18
 820 331 816 331 811 336 c 10
 153 994 l 18
 148 999 148 1003 153 1008 c 10
 235 1089 l 18
 240 1094 244 1094 249 1089 c 10
 906 431 l 18
 911 426 911 422 906 417 c 10
235 336 m 14
 153 417 l 22
 148 422 148 426 153 431 c 14
 811 1089 l 22
 816 1094 820 1094 825 1089 c 14
 906 1008 l 22
 911 1003 911 999 906 994 c 14
 249 336 l 22
 244 331 240 331 235 336 c 14
EndSplineSet
EndChar

StartChar: Oslash
Encoding: 216 216 393
Width: 1440
VWidth: 1920
Flags: W
LayerCount: 2
Fore
SplineSet
1169 1486 m 6
 1221 1456 l 6
 1227 1452 1229 1448 1225 1442 c 6
 345 -82 l 6
 341 -88 337 -90 331 -86 c 6
 279 -56 l 6
 273 -52 271 -48 275 -42 c 6
 1155 1482 l 6
 1159 1488 1163 1490 1169 1486 c 6
EndSplineSet
Refer: 26 79 N 1 0 0 1 0 0 2
EndChar

StartChar: oslash
Encoding: 248 248 394
Width: 1075
VWidth: 1920
Flags: W
LayerCount: 2
Fore
SplineSet
884 1169 m 6
 936 1139 l 6
 942 1135 944 1131 940 1125 c 6
 230 -105 l 6
 226 -111 222 -113 216 -109 c 6
 164 -79 l 6
 158 -75 156 -71 160 -65 c 6
 870 1165 l 6
 874 1171 878 1173 884 1169 c 6
EndSplineSet
Refer: 52 111 N 1 0 0 1 0 0 2
EndChar

StartChar: germandbls
Encoding: 223 223 396
Width: 1210
VWidth: 1920
Flags: W
HStem: -35 140<497.125 761.011> 0 21G<26.5 198.5> 1360 127<568.783 845.729>
LayerCount: 2
Fore
SplineSet
294 1188 m 2x60
 334 1362 510 1487 740 1487 c 0
 1003 1487 1109 1372 1070 1205 c 0
 1025 1008 868 935 840 815 c 0
 799 636 1149 593 1082 302 c 0
 1033 90 845 -35 485 -35 c 0
 476 -35 475 -34 477 -25 c 2
 505 95 l 2
 507 104 508 105 517 105 c 0xa0
 762 106 854 179 881 297 c 0
 932 520 586 537 653 828 c 0
 686 970 842 1038 872 1168 c 0
 898 1279 863 1360 721 1360 c 4
 599 1360 506 1301 475 1168 c 2
 207 10 l 2
 205 3 202 0 195 0 c 2
 30 0 l 2
 23 0 20 3 22 10 c 2
 294 1188 l 2x60
EndSplineSet
EndChar

StartChar: eth
Encoding: 240 240 397
Width: 1104
VWidth: 1920
Flags: W
HStem: -35 150<330.837 607.267> 935 150<484.218 757.596>
LayerCount: 2
Fore
SplineSet
352 1101 m 14
 332 1185 l 22
 330 1191 333 1195 340 1198 c 14
 933 1448 l 22
 940 1451 943 1450 945 1444 c 14
 965 1360 l 22
 967 1354 964 1350 957 1347 c 14
 364 1096 l 22
 357 1093 354 1095 352 1101 c 14
625 935 m 256
 445 935 313 750 264 537 c 258
 255 497 l 258
 207 287 278 115 467 115 c 256
 644 115 799 302 838 472 c 258
 890 698 l 258
 956 984 629 1230 374 1350 c 0
 365 1354 363 1358 369 1365 c 2
 455 1475 l 2
 461 1483 462 1485 474 1480 c 0
 815 1337 1145 999 1058 623 c 258
 1038 537 l 258
 969 237 779 -35 422 -35 c 256
 130 -35 -8 179 56 457 c 258
 81 567 l 258
 144 841 342 1085 599 1085 c 256
 836 1085 987 856 942 662 c 257
 838 472 l 257
 868 602 l 258
 910 785 775 935 625 935 c 256
EndSplineSet
EndChar

StartChar: dcroat
Encoding: 273 273 398
Width: 1100
VWidth: 1920
Flags: W
HStem: 1195 135<817.406 1295.59>
LayerCount: 2
Fore
SplineSet
798 1205 m 14
 825 1320 l 22
 827 1327 830 1330 837 1330 c 14
 1307 1330 l 22
 1314 1330 1317 1327 1315 1320 c 14
 1288 1205 l 22
 1286 1198 1283 1195 1276 1195 c 14
 806 1195 l 22
 799 1195 796 1198 798 1205 c 14
EndSplineSet
Refer: 41 100 N 1 0 0 1 0 0 2
EndChar

StartChar: Hbar
Encoding: 294 294 399
Width: 1336
VWidth: 1920
Flags: W
HStem: 1050 135<143.688 1512.31>
LayerCount: 2
Fore
SplineSet
125 1060 m 14
 151 1175 l 22
 153 1182 157 1185 164 1185 c 14
 1524 1185 l 22
 1531 1185 1533 1182 1531 1175 c 14
 1505 1060 l 22
 1503 1053 1499 1050 1492 1050 c 14
 132 1050 l 22
 125 1050 123 1053 125 1060 c 14
EndSplineSet
Refer: 19 72 N 1 0 0 1 0 0 2
EndChar

StartChar: hbar
Encoding: 295 295 400
Width: 1075
VWidth: 1920
Flags: W
HStem: 1195 135<187.406 665.594>
LayerCount: 2
Fore
SplineSet
168 1205 m 14
 195 1320 l 22
 197 1327 200 1330 207 1330 c 14
 677 1330 l 22
 684 1330 687 1327 685 1320 c 14
 658 1205 l 22
 656 1198 653 1195 646 1195 c 14
 176 1195 l 22
 169 1195 166 1198 168 1205 c 14
EndSplineSet
Refer: 45 104 N 1 0 0 1 0 0 2
EndChar

StartChar: Lslash
Encoding: 321 321 405
Width: 1031
VWidth: 1920
Flags: W
LayerCount: 2
Fore
SplineSet
613 1038 m 6
 631 987 l 6
 634 981 631 977 624 973 c 6
 104 708 l 6
 97 704 94 706 91 712 c 6
 73 763 l 6
 70 769 73 773 80 777 c 6
 600 1042 l 6
 607 1046 610 1044 613 1038 c 6
EndSplineSet
Refer: 23 76 N 1 0 0 1 0 0 2
EndChar

StartChar: lslash
Encoding: 322 322 406
Width: 434
VWidth: 1920
Flags: W
LayerCount: 2
Fore
SplineSet
573 1038 m 6
 591 987 l 6
 594 981 591 977 584 973 c 6
 64 708 l 6
 57 704 54 706 51 712 c 6
 33 763 l 6
 30 769 33 773 40 777 c 6
 560 1042 l 6
 567 1046 570 1044 573 1038 c 6
EndSplineSet
Refer: 49 108 N 1 0 0 1 0 0 2
EndChar

StartChar: eng
Encoding: 331 331 408
Width: 1110
VWidth: 1920
Flags: W
HStem: -351 130<384.188 607.737> 0 21G<11.5 188.5> 955 130<587.8 824.977> 1030 20G<253.5 420.5>
LayerCount: 2
Fore
SplineSet
257 1050 m 2xd0
 417 1050 l 2
 424 1050 427 1047 425 1040 c 2
 378 837 l 257
 382 810 l 257
 197 10 l 2
 195 3 192 0 185 0 c 2
 15 0 l 2
 8 0 5 3 7 10 c 2
 245 1040 l 2
 247 1047 250 1050 257 1050 c 2xd0
842 -98 m 2
 794 -305 657 -378 375 -351 c 0
 367 -350 365 -347 367 -340 c 2
 392 -230 l 2
 394 -223 397 -220 404 -221 c 0
 549 -239 628 -205 657 -78 c 2
 851 763 l 2
 879 883 827 955 690 955 c 0
 523 955 387 833 339 623 c 1
 307 703 l 1
 358 923 563 1085 770 1085 c 0xe0
 977 1085 1087 963 1041 763 c 2
 842 -98 l 2
EndSplineSet
EndChar

StartChar: Eng
Encoding: 330 330 409
Width: 1380
VWidth: 1920
Flags: W
HStem: -351 130<629.188 852.737> 0 21G<36.5 193.5> 1380 20G<359.5 557 1269.5 1426.5>
LayerCount: 2
Fore
SplineSet
1273 1400 m 2
 1423 1400 l 2
 1430 1400 1433 1397 1431 1390 c 2
 1087 -98 l 2
 1039 -305 902 -378 620 -351 c 0
 612 -350 610 -347 612 -340 c 2
 637 -230 l 2
 639 -223 642 -220 649 -221 c 0
 794 -239 873 -205 902 -78 c 2
 947 115 l 1
 465 1150 l 1
 202 10 l 2
 200 3 197 0 190 0 c 2
 40 0 l 2
 33 0 30 3 32 10 c 2
 351 1390 l 2
 353 1397 356 1400 363 1400 c 2
 553 1400 l 2
 561 1400 564 1398 568 1390 c 2
 1034 409 l 1
 1261 1390 l 2
 1263 1397 1266 1400 1273 1400 c 2
EndSplineSet
EndChar

StartChar: oe
Encoding: 339 339 410
Width: 1835
VWidth: 1920
Flags: W
HStem: -35 130<315.631 619.596 1051.08 1350.82> 485 120<989 1592.4> 955 130<489.202 797.568 1236.19 1529.31>
LayerCount: 2
Fore
SplineSet
73 448 m 258
 109 603 l 258
 176 893 408 1085 665 1085 c 256
 942 1085 1056 893 989 603 c 258
 953 448 l 258
 886 158 684 -35 407 -35 c 256
 150 -35 6 158 73 448 c 258
262 418 m 258
 218 228 270 95 457 95 c 256
 644 95 758 228 802 418 c 258
 851 633 l 258
 895 823 842 955 655 955 c 256
 468 955 355 823 311 633 c 258
 262 418 l 258
1695 329 m 0
 1590 95 1380 -35 1179 -35 c 256
 900 -35 792 138 864 448 c 258
 900 603 l 258
 969 903 1158 1085 1445 1085 c 256
 1682 1085 1803 889 1777 674 c 256
 1769 603 1762 577 1743 493 c 0
 1742 488 1738 485 1731 485 c 2
 947 485 l 257
 975 605 l 257
 1585 605 l 257
 1632 832 1558 955 1395 955 c 256
 1238 955 1095 843 1047 633 c 258
 998 418 l 258
 947 198 1030 95 1197 95 c 256
 1329 95 1461 184 1527 332 c 0
 1529 336 1532 338 1539 338 c 2
 1689 338 l 2
 1696 338 1697 335 1695 329 c 0
EndSplineSet
EndChar

StartChar: OE
Encoding: 338 338 411
Width: 2130
VWidth: 1920
Flags: W
HStem: 0 150<437.592 930> 1250 150<669.498 1184>
LayerCount: 2
Fore
SplineSet
873 1400 m 262
 1398 1400 l 262
 1405 1400 1408 1397 1406 1390 c 262
 1087 10 l 262
 1085 3 1082 0 1075 0 c 262
 550 0 l 262
 236 0 28 231 117 617 c 262
 156 782 l 262
 245 1168 519 1400 873 1400 c 262
879 1250 m 262
 625 1250 427 1090 358 792 c 262
 315 607 l 262
 246 309 371 150 625 150 c 262
 930 150 l 261
 1184 1250 l 261
 879 1250 l 262
EndSplineSet
Refer: 16 69 N 1 0 0 1 850 0 2
EndChar

StartChar: Tbar
Encoding: 358 358 413
Width: 1131
VWidth: 1920
Flags: W
HStem: 630 135<246.688 1005.31>
LayerCount: 2
Fore
SplineSet
228 640 m 14
 254 755 l 22
 256 762 260 765 267 765 c 14
 1017 765 l 22
 1024 765 1026 762 1024 755 c 14
 998 640 l 22
 996 633 992 630 985 630 c 14
 235 630 l 22
 228 630 226 633 228 640 c 14
EndSplineSet
Refer: 31 84 N 1 0 0 1 0 0 2
EndChar

StartChar: tbar
Encoding: 359 359 414
Width: 608
VWidth: 1920
Flags: HW
HStem: 560 135<60.6875 589.312>
LayerCount: 2
Fore
SplineSet
42 570 m 14
 68 685 l 22
 70 692 73 695 80 695 c 14
 600 695 l 22
 607 695 610 692 608 685 c 14
 582 570 l 22
 580 563 576 560 569 560 c 14
 49 560 l 22
 42 560 40 563 42 570 c 14
EndSplineSet
Refer: 57 116 N 1 0 0 1 0 0 2
EndChar

StartChar: florin
Encoding: 402 402 415
Width: 602
VWidth: 1920
Flags: W
HStem: -371 127<-163.28 -28.1355> 943 107<169.234 286 479 676.766> 1000 48<294 470.391> 1340 107<569.4 701.198>
LayerCount: 2
Fore
SplineSet
656 943 m 2xd0
 162 943 l 2
 155 943 152 946 154 953 c 2
 179 1040 l 2
 181 1047 184 1050 191 1050 c 2
 685 1050 l 2
 692 1050 694 1047 692 1040 c 2
 667 953 l 2
 665 946 663 943 656 943 c 2xd0
317 1135 m 2
 366 1347 480 1447 659 1447 c 0
 878 1447 899 1276 844 1183 c 0
 841.258789062 1178.36523438 840 1176 833 1176 c 2
 687 1176 l 2
 680 1176 675.7109375 1179.15820312 678 1183 c 0
 734 1277 704 1340 645 1340 c 0
 577 1340 527 1261 498 1136 c 2
 467 1010 l 6
 465 1003 462 1000 455 1000 c 6
 294 1000 l 6xb0
 287 1000 284 1003 286 1010 c 6
 317 1135 l 2
225 -59 m 2
 176 -271 47 -371 -132 -371 c 0
 -351 -371 -342 -200 -307 -107 c 0
 -305 -102 -302 -100 -295 -100 c 2
 -149 -100 l 2
 -142 -100 -139 -103 -141 -107 c 0
 -177 -201 -176 -244 -117 -244 c 0
 -49 -244 10 -185 39 -60 c 2
 293 1038 l 6
 295 1045 298 1048 305 1048 c 6
 471 1048 l 6
 478 1048 481 1047 479 1040 c 6
 225 -59 l 2
EndSplineSet
EndChar

StartChar: uni0394
Encoding: 916 916 430
Width: 1280
VWidth: 1920
Flags: W
HStem: 0 150<184 904> 1380 20G<734.5 941.5>
LayerCount: 2
Fore
SplineSet
-70 0 m 6
 -77 0 -78 4 -75 10 c 2
 723 1390 l 2
 726 1396 731 1400 738 1400 c 2
 938 1400 l 2
 945 1400 948 1396 949 1390 c 2
 1119 10 l 2
 1120 4 1117 0 1110 0 c 6
 -70 0 l 6
184 150 m 1
 904 150 l 1
 787 1226 l 1
 184 150 l 1
EndSplineSet
EndChar

StartChar: uni03A9
Encoding: 937 937 431
Width: 1490
VWidth: 1920
Flags: W
HStem: 0 155<10.25 376 944 1274.75> 1295 140<727.716 1105.83>
LayerCount: 2
Fore
SplineSet
752 171 m 0
 1006 254 1168 428 1233 708 c 2
 1253 793 l 2
 1322 1091 1188 1295 924 1295 c 0
 660 1295 432 1091 363 793 c 2
 343 708 l 2
 278 427 361 252 579 170 c 0
 593 165 593 162 590 151 c 2
 557 10 l 2
 555 3 552 0 545 0 c 2
 -5 0 l 2
 -12 0 -15 3 -13 10 c 2
 18 145 l 2
 20 152 24 155 31 155 c 2
 376 155 l 1
 169 262 85 453 153 748 c 2
 161 783 l 2
 250 1169 574 1435 956 1435 c 0
 1338 1435 1540 1169 1451 783 c 2
 1443 748 l 2
 1375 453 1200 262 944 155 c 1
 1291 155 l 2
 1298 155 1300 152 1298 145 c 2
 1267 10 l 2
 1265 3 1262 0 1255 0 c 2
 705 0 l 2
 698 0 695 3 697 10 c 2
 730 151 l 2
 733 162 733 165 752 171 c 0
EndSplineSet
EndChar

StartChar: pi
Encoding: 960 960 432
Width: 1255
VWidth: 1920
Flags: W
HStem: -1 130<927.133 1104.72> 895 155<152.25 317 499 894 1071 1256.75> 895 105<322 499.906> 895 85<899 1073.97>
VStem: 90 190<0 70.4405>
LayerCount: 2
Fore
SplineSet
507 990 m 2xa8
 280 10 l 2
 278 3 275 0 268 0 c 2
 98 0 l 2
 91 0 88 3 90 10 c 2
 317 990 l 2
 319 997 322 1000 329 1000 c 2
 499 1000 l 2
 506 1000 509 997 507 990 c 2xa8
1123 120 m 2
 1097 10 l 2
 1095 3 1092 0 1085 -1 c 0
 788 -38 680 44 728 252 c 258
 894 970 l 2
 896 977 899 980 906 980 c 2
 1071 980 l 2x98
 1078 980 1081 977 1079 970 c 2
 918 272 l 258
 889 145 962 111 1116 129 c 0
 1122 130 1125 127 1123 120 c 2
129 905 m 10
 160 1040 l 18
 162 1047 165 1050 172 1050 c 10
 1272 1050 l 18
 1279 1050 1282 1047 1280 1040 c 10
 1249 905 l 18
 1247 898 1244 895 1237 895 c 10xc8
 137 895 l 18
 130 895 127 898 129 905 c 10
EndSplineSet
EndChar

StartChar: minute
Encoding: 8242 8242 433
Width: 470
VWidth: 1920
Flags: W
HStem: 930 490
VStem: 145 431
LayerCount: 2
Fore
SplineSet
202 930 m 2
 151 930 l 2
 144 930 142 934 145 940 c 2
 376 1410 l 2
 380 1417 383 1420 390 1420 c 2
 570 1420 l 6
 577 1420 580 1416 576 1410 c 2
 219 940 l 2
 215 934 209 930 202 930 c 2
EndSplineSet
EndChar

StartChar: Euro
Encoding: 8364 8364 435
Width: 1405
VWidth: 1920
Flags: W
HStem: -35 140<475.733 853.871> 495 125<43.5 824.5> 765 125<105.5 886.5> 1295 140<741.986 1113.8>
VStem: 1050 170<267.805 358> 1192 170<1123 1230.11>
LayerCount: 2
Fore
SplineSet
27 505 m 14xf0
 51 610 l 22
 53 617 56 620 63 620 c 14
 833 620 l 22
 840 620 843 617 841 610 c 14
 817 505 l 22
 815 498 811 495 804 495 c 14
 34 495 l 22
 27 495 25 498 27 505 c 14xf0
89 775 m 14
 113 880 l 22
 115 887 118 890 125 890 c 14
 895 890 l 22
 902 890 905 887 903 880 c 14
 879 775 l 22
 877 768 874 765 867 765 c 14
 97 765 l 22
 90 765 87 768 89 775 c 14
1220 348 m 260xf8
 1147 126 924 -35 607 -35 c 260
 220 -35 75 238 163 618 c 262
 201 783 l 262
 289 1163 559 1435 946 1435 c 260
 1283 1435 1388 1283 1362 1133 c 260
 1361 1124 1356 1123 1349 1123 c 262
 1200 1123 l 262
 1193 1123 1190 1124 1192 1133 c 260xf4
 1208 1209 1111 1295 924 1295 c 260
 667 1295 465 1063 403 793 c 262
 360 608 l 262
 298 338 372 105 649 105 c 260
 856 105 1012 215 1050 348 c 260
 1052 357 1056 358 1063 358 c 262
 1213 358 l 262
 1220 358 1223 357 1220 348 c 260xf8
EndSplineSet
EndChar

StartChar: uni2116
Encoding: 8470 8470 436
Width: 2180
VWidth: 1920
Flags: W
HStem: 0 155<1355.25 1949.75>
LayerCount: 2
Fore
SplineSet
1332 10 m 10
 1363 145 l 18
 1365 152 1369 155 1376 155 c 10
 1966 155 l 18
 1973 155 1975 152 1973 145 c 10
 1942 10 l 18
 1940 3 1937 0 1930 0 c 10
 1340 0 l 18
 1333 0 1330 3 1332 10 c 10
EndSplineSet
Refer: 132 8304 S 1 0 0 1 1290 -295 2
Refer: 25 78 N 1 0 0 1 0 0 2
EndChar

StartChar: trademark
Encoding: 8482 8482 437
Width: 1722
VWidth: 1920
Flags: W
HStem: 1290 110<273.375 518 652 921.625>
LayerCount: 2
Fore
SplineSet
289 1400 m 2
 931 1400 l 2
 935 1400 937 1398 936 1394 c 2
 913 1296 l 2
 912 1292 910 1290 906 1290 c 2
 652 1290 l 257
 485 566 l 2
 484 562 481 560 477 560 c 2
 355 560 l 2
 351 560 350 562 351 566 c 2
 518 1290 l 257
 264 1290 l 2
 260 1290 258 1292 259 1296 c 2
 282 1394 l 2
 283 1398 285 1400 289 1400 c 2
1119 1242 m 257
 963 566 l 2
 962 562 959 560 955 560 c 2
 857 560 l 2
 853 560 852 562 853 566 c 2
 1044 1394 l 2
 1045 1398 1047 1400 1051 1400 c 2
 1215 1400 l 2
 1219 1400 1221 1398 1222 1394 c 2
 1321 811 l 257
 1694 1394 l 2
 1697 1398 1699 1400 1703 1400 c 2
 1839 1400 l 2
 1843 1400 1845 1398 1844 1394 c 2
 1653 566 l 2
 1652 562 1649 560 1645 560 c 2
 1535 560 l 2
 1531 560 1530 562 1531 566 c 2
 1672 1180 l 257
 1279 566 l 2
 1276 562 1273 560 1269 560 c 2
 1233 560 l 2
 1229 560 1228 562 1227 566 c 2
 1119 1242 l 257
EndSplineSet
EndChar

StartChar: partialdiff
Encoding: 8706 8706 438
Width: 1104
VWidth: 1920
Flags: W
HStem: -35 150<296.979 607.267> 735 150<416.142 775.094>
LayerCount: 2
Fore
SplineSet
589 735 m 260
 409 735 283 620 241 437 c 258
 232 397 l 258
 190 217 278 115 467 115 c 256
 644 115 799 302 838 472 c 258
 890 698 l 258
 956 984 629 1230 374 1350 c 0
 365 1354 363 1358 369 1365 c 2
 455 1475 l 2
 461 1483 462 1485 474 1480 c 0
 815 1337 1145 999 1058 623 c 258
 1038 537 l 258
 969 237 779 -35 422 -35 c 256
 130 -35 -25 109 32 357 c 258
 58 467 l 258
 114 711 306 885 563 885 c 260
 800 885 964 756 919 562 c 257
 815 372 l 257
 845 502 l 258
 887 685 739 735 589 735 c 260
EndSplineSet
EndChar

StartChar: summation
Encoding: 8721 8721 439
Width: 1170
VWidth: 1920
Flags: W
HStem: -360 150<204 924.5> 1250 150<541 1296.5>
LayerCount: 2
Fore
SplineSet
896 505 m 6
 204 -210 l 1
 940 -210 l 2
 947 -210 949 -213 947 -220 c 2
 917 -350 l 2
 915 -357 912 -360 905 -360 c 2
 -125 -360 l 2
 -132 -360 -134 -358 -126 -350 c 2
 692 520 l 1
 276 1390 l 2
 272 1398 274 1400 281 1400 c 2
 1311 1400 l 2
 1318 1400 1321 1397 1319 1390 c 2
 1289 1260 l 2
 1287 1253 1284 1250 1277 1250 c 2
 541 1250 l 1
 903 535 l 6
 908 523 907 517 896 505 c 6
EndSplineSet
EndChar

StartChar: minus
Encoding: 8722 8722 440
Width: 1170
Flags: W
HStem: 425 155<134 1028>
LayerCount: 2
Fore
SplineSet
110 435 m 10
 142 570 l 18
 144 577 147 580 154 580 c 10
 1044 580 l 18
 1051 580 1054 577 1052 570 c 10
 1020 435 l 18
 1018 428 1015 425 1008 425 c 10
 118 425 l 18
 111 425 108 428 110 435 c 10
EndSplineSet
EndChar

StartChar: integral
Encoding: 8747 8747 441
Width: 445
VWidth: 1920
Flags: W
HStem: -351 130<-282.812 -59.2626> 1312 129<518.159 722.905>
LayerCount: 2
Fore
SplineSet
175 -98 m 2
 127 -305 -10 -378 -292 -351 c 0
 -300 -350 -302 -347 -300 -340 c 2
 -275 -230 l 2
 -273 -223 -270 -220 -263 -221 c 0
 -118 -239 -39 -205 -10 -78 c 6
 282 1188 l 2
 330 1395 458 1469 739 1441 c 0
 748 1440 750 1437 748 1430 c 2
 723 1320 l 2
 721 1313 718 1311 705 1312 c 0
 563 1327 497 1293 468 1168 c 2
 175 -98 l 2
EndSplineSet
EndChar

StartChar: radical
Encoding: 8730 8730 443
Width: 1055
VWidth: 1920
Flags: HMW
LayerCount: 2
Fore
SplineSet
422 1050 m 6
 429 1050 432 1046 433 1040 c 6
 525 328 l 5
 1060 1590 l 6
 1062 1597 1065 1600 1072 1600 c 6
 1227 1600 l 2
 1234 1600 1238 1597 1235 1590 c 2
 458 -143 l 2
 454 -151 452 -151 451 -143 c 2
 267 900 l 1
 126 900 l 2
 119 900 116 903 118 910 c 2
 148 1040 l 2
 150 1047 153 1050 160 1050 c 2
 422 1050 l 6
EndSplineSet
EndChar

StartChar: infinity
Encoding: 8734 8734 444
Width: 1450
Flags: HMW
LayerCount: 2
Fore
SplineSet
331 301 m 0
 131 301 53 471 98 665 c 0
 143 859 299 1025 499 1025 c 0
 653 1025 729 915 756 755 c 1
 857 915 983 1025 1137 1025 c 0
 1337 1025 1415 859 1370 665 c 0
 1325 471 1169 301 969 301 c 0
 815 301 721 411 714 571 c 1
 611 411 485 301 331 301 c 0
390 457 m 0
 478 457 577 541 660 665 c 1
 638 787 573 871 485 871 c 0
 385 871 296 795 266 665 c 0
 236 537 290 457 390 457 c 0
984 457 m 0
 1084 457 1172 537 1202 665 c 0
 1232 795 1179 871 1079 871 c 0
 991 871 888 787 810 665 c 1
 812 543 896 457 984 457 c 0
EndSplineSet
EndChar

StartChar: product
Encoding: 8719 8719 445
Width: 1380
VWidth: 1920
Flags: W
HStem: 0 21G<36.5 213.5 926.5 1103.5> 1250 150<509 1209>
LayerCount: 2
Fore
SplineSet
1423 1400 m 6
 1430 1400 1433 1397 1431 1390 c 2
 1112 10 l 2
 1110 3 1107 0 1100 0 c 2
 930 0 l 2
 923 0 920 3 922 10 c 2
 1209 1250 l 257
 509 1250 l 257
 222 10 l 2
 220 3 217 0 210 0 c 2
 40 0 l 2
 33 0 30 3 32 10 c 2
 351 1390 l 18
 353 1397 356 1400 363 1400 c 10
 1423 1400 l 6
EndSplineSet
EndChar

StartChar: uni2219
Encoding: 8729 8729 446
Width: 540
Flags: W
HStem: 525 300<205 417.5>
VStem: 161 298<569.516 785.452>
LayerCount: 2
Fore
SplineSet
161 675 m 4
 161 763 222 825 310 825 c 4
 398 825 459 763 459 675 c 4
 459 587 403 525 315 525 c 4
 227 525 161 587 161 675 c 4
EndSplineSet
EndChar

StartChar: approxequal
Encoding: 8776 8776 447
Width: 1180
VWidth: 1920
Flags: W
HStem: 172 165<603.751 832.103> 294 165<254.767 491.62> 542 165<688.751 917.103> 664 165<339.767 576.62>
LayerCount: 2
Fore
SplineSet
445 664 m 256x10
 363 664 324 610 313 577 c 0
 311 571 308 568 301 568 c 2
 171 568 l 2
 164 568 162 571 163 577 c 0
 199 715 332 829 473 829 c 256x10
 652 829 680 707 812 707 c 256
 894 707 934 761 944 793 c 0
 947 800 949 803 956 803 c 2
 1085 803 l 2
 1092 803 1095 800 1093 793 c 0
 1057 655 924 542 784 542 c 256x20
 605 542 597 664 445 664 c 256x10
360 294 m 256x40
 278 294 239 240 228 207 c 0
 226 201 223 198 216 198 c 2
 86 198 l 2
 79 198 77 201 78 207 c 0
 114 345 247 459 388 459 c 256x40
 567 459 595 337 727 337 c 256
 809 337 849 391 859 423 c 0
 862 430 864 433 871 433 c 2
 1000 433 l 2
 1007 433 1010 430 1008 423 c 0
 972 285 839 172 699 172 c 256x80
 520 172 512 294 360 294 c 256x40
EndSplineSet
EndChar

StartChar: notequal
Encoding: 8800 8800 448
Width: 1180
VWidth: 1920
Flags: W
LayerCount: 2
Fore
SplineSet
1008 960 m 6
 1050 918 l 6
 1055 913 1055 909 1050 904 c 6
 186 40 l 6
 181 35 177 35 172 40 c 6
 130 82 l 6
 125 87 125 91 130 96 c 6
 994 960 l 6
 999 965 1003 965 1008 960 c 6
EndSplineSet
Refer: 83 61 N 1 0 0 1 0 0 2
EndChar

StartChar: lessequal
Encoding: 8804 8804 449
Width: 1010
VWidth: 1920
Flags: W
HStem: 0 155<15.25 789.75>
LayerCount: 2
Fore
SplineSet
-8 10 m 14
 23 145 l 22
 25 152 29 155 36 155 c 14
 806 155 l 22
 813 155 815 152 813 145 c 14
 782 10 l 22
 780 3 777 0 770 0 c 14
 0 0 l 22
 -7 0 -10 3 -8 10 c 14
EndSplineSet
Refer: 84 60 N 1 0 0 1 0 150 2
EndChar

StartChar: greaterequal
Encoding: 8805 8805 450
Width: 1010
VWidth: 1920
Flags: W
HStem: 0 155<15.25 789.75>
LayerCount: 2
Fore
SplineSet
-8 10 m 14
 23 145 l 22
 25 152 29 155 36 155 c 14
 806 155 l 22
 813 155 815 152 813 145 c 14
 782 10 l 22
 780 3 777 0 770 0 c 14
 0 0 l 22
 -7 0 -10 3 -8 10 c 14
EndSplineSet
Refer: 85 62 N 1 0 0 1 0 150 2
EndChar

StartChar: lozenge
Encoding: 9674 9674 451
Width: 950
Flags: W
LayerCount: 2
Fore
SplineSet
370 40 m 6
 123 702 l 6
 120 710 121 714 128 722 c 6
 680 1382 l 6
 688 1391 688 1392 692 1382 c 6
 916 722 l 6
 918 714 917 710 911 702 c 6
 382 40 l 6
 375 30 374 31 370 40 c 6
431 304 m 1
 757 712 l 1
 620 1120 l 1
 281 712 l 1
 431 304 l 1
EndSplineSet
EndChar

StartChar: uniF8EA
Encoding: 63722 63722 452
Width: 1088
VWidth: 1920
Flags: W
HStem: 1334 66<270.5 419 500 663.5>
LayerCount: 2
Fore
SplineSet
282 1400 m 2
 667 1400 l 2
 669 1400 670 1398 670 1396 c 2
 657 1338 l 2
 657 1336 654 1334 652 1334 c 2
 500 1334 l 257
 400 900 l 2
 400 898 397 896 395 896 c 2
 322 896 l 2
 320 896 319 898 319 900 c 2
 419 1334 l 257
 267 1334 l 2
 265 1334 264 1336 264 1338 c 2
 277 1396 l 2
 277 1398 280 1400 282 1400 c 2
780 1305 m 257
 687 900 l 2
 687 898 684 896 682 896 c 2
 623 896 l 2
 621 896 621 898 621 900 c 2
 735 1396 l 2
 735 1398 737 1400 739 1400 c 2
 838 1400 l 2
 840 1400 840 1398 841 1396 c 2
 902 1047 l 257
 1125 1396 l 2
 1126 1398 1128 1400 1130 1400 c 2
 1212 1400 l 2
 1214 1400 1215 1398 1215 1396 c 2
 1101 900 l 2
 1101 898 1098 896 1096 896 c 2
 1030 896 l 2
 1028 896 1027 898 1027 900 c 2
 1112 1268 l 257
 876 900 l 2
 875 898 872 896 870 896 c 2
 849 896 l 2
 847 896 846 898 845 900 c 2
 780 1305 l 257
EndSplineSet
EndChar

StartChar: uniF8E8
Encoding: 63720 63720 453
Width: 986
Flags: W
HStem: 599 51<396.5 656.519> 1014 54<498 634.522> 1028 22<637 725> 1234 54<536 747.925> 1384 51<562.493 813.424>
VStem: 694 73<784 936>
LayerCount: 2
Fore
SplineSet
536 1234 m 261xdc
 498 1068 l 261
 642 1068 l 262
 702 1068 738 1093 748 1136 c 262
 755 1166 l 262
 765 1209 740 1234 680 1234 c 262
 536 1234 l 261xdc
692 1288 m 262
 785 1288 846 1245 826 1159 c 262
 823 1150 l 262
 803 1064 725 1028 632 1028 c 261
 637 1050 l 261xbc
 730 1050 791 1022 771 936 c 262
 763 902 l 262
 754 861 758 831 769 806 c 4
 771 802 769 800 769 798 c 6
 767 787 l 6
 766 784 766 784 763 784 c 6
 698 784 l 6
 695 784 695 784 694 787 c 4
 682 823 687 871 694 902 c 262
 704 946 l 262
 714 989 689 1014 629 1014 c 262
 485 1014 l 261
 433 787 l 6
 432 784 431 784 428 784 c 6
 367 784 l 6
 364 784 363 784 364 787 c 6
 478 1284 l 6
 479 1287 480 1288 483 1288 c 6
 692 1288 l 262
1026 1016 m 4
 973 786 740 599 510 599 c 4
 280 599 137 786 190 1016 c 4
 243 1246 473 1435 703 1435 c 4
 933 1435 1079 1246 1026 1016 c 4
975 1016 m 4
 1022 1219 895 1384 692 1384 c 4
 489 1384 288 1219 241 1016 c 4
 194 813 319 650 522 650 c 4
 725 650 928 813 975 1016 c 4
EndSplineSet
EndChar

StartChar: uniF8E9
Encoding: 63721 63721 454
Width: 986
Flags: W
HStem: 599 51<396.5 656.519> 753 50<482.342 643.858> 1232 50<572.872 733.638> 1384 51<562.493 813.424>
LayerCount: 2
Fore
SplineSet
793 945 m 260
 761 840 674 753 542 753 c 260
 403 753 350 851 382 988 c 262
 396 1047 l 262
 428 1184 525 1282 664 1282 c 260
 796 1282 839 1203 822 1116 c 260
 821 1113 821 1112 818 1112 c 262
 764 1112 l 262
 761 1112 760 1113 761 1116 c 260
 775 1183 734 1232 656 1232 c 260
 563 1232 491 1148 469 1051 c 262
 453 984 l 262
 431 887 457 803 557 803 c 260
 642 803 715 868 732 945 c 260
 733 948 734 948 737 948 c 262
 791 948 l 262
 794 948 794 948 793 945 c 260
1026 1016 m 4
 973 786 740 599 510 599 c 4
 280 599 137 786 190 1016 c 4
 243 1246 473 1435 703 1435 c 4
 933 1435 1079 1246 1026 1016 c 4
975 1016 m 4
 1022 1219 895 1384 692 1384 c 4
 489 1384 288 1219 241 1016 c 4
 194 813 319 650 522 650 c 4
 725 650 928 813 975 1016 c 4
EndSplineSet
EndChar

StartChar: uni1E9E
Encoding: 7838 7838 457
Width: 1380
VWidth: 1920
Flags: W
HStem: -35 142<532.794 916.992> 0 21G<46.5 218.5> 1292 142<659.698 1065.86>
LayerCount: 2
Fore
SplineSet
272 1005 m 6x60
 338 1289 608 1434 898 1434 c 4
 1169 1434 1296 1329 1364 1191 c 4
 1373 1173 1374 1172 1358 1156 c 6
 989 765 l 5
 1097 716 1322 609 1262 348 c 4
 1210 124 1020 -35 731 -35 c 4
 623 -35 530 -15 491 16 c 4
 472 31 469 26 471 35 c 6
 499 155 l 6
 502 166 505 169 521 158 c 4
 558 132 650 107 742 107 c 4xa0
 907 107 1040 209 1072 346 c 4
 1117 543 931 622 767 672 c 4
 748 678 749 678 765 697 c 6
 1169 1156 l 5
 1146 1198 1070 1292 862 1292 c 4
 693 1292 506 1218 452 985 c 6
 227 10 l 6
 225 3 222 0 215 0 c 6
 50 0 l 6
 43 0 40 3 42 10 c 6
 272 1005 l 6x60
EndSplineSet
EndChar
